<svg xmlns="http://www.w3.org/2000/svg" width="63.303" height="26.997" viewBox="0 0 63.303 26.997">
  <defs>
    <style>
      .cls-1 {
        fill: #5f453d;
      }

      .cls-2 {
        fill: #412f29;
      }
    </style>
  </defs>
  <g id="그룹_32" data-name="그룹 32" transform="translate(-61.435 -86.053)">
    <path id="패스_66" data-name="패스 66" class="cls-1" d="M856.5,45.761V32.2h3.122v6.1l5.23-6.1H868.1l-5.086,6.057,5.416,7.5h-3.308l-3.949-5.747-1.55,1.674v4.072Z" transform="translate(-777.224 60.509)"/>
    <path id="패스_67" data-name="패스 67" class="cls-1" d="M917.154,58.8a6.027,6.027,0,0,1-2.274-.413,5.2,5.2,0,0,1-1.7-1.137,4.756,4.756,0,0,1-1.034-1.654,5.725,5.725,0,0,1-.351-1.984,5.9,5.9,0,0,1,.351-1.984,4.756,4.756,0,0,1,1.034-1.654,4.708,4.708,0,0,1,1.7-1.137,6.1,6.1,0,0,1,2.274-.434,5.648,5.648,0,0,1,2.274.434,4.932,4.932,0,0,1,2.729,2.791,5.294,5.294,0,0,1,.372,1.984,5.9,5.9,0,0,1-.351,1.984,4.754,4.754,0,0,1-1.034,1.654,4.987,4.987,0,0,1-1.7,1.137A6.136,6.136,0,0,1,917.154,58.8Zm-2.233-5.189a2.808,2.808,0,0,0,.62,1.9,2.045,2.045,0,0,0,1.612.724,1.981,1.981,0,0,0,.868-.186,2.2,2.2,0,0,0,.7-.537,2.482,2.482,0,0,0,.476-.827,2.968,2.968,0,0,0,.165-1.054,2.808,2.808,0,0,0-.62-1.9A2.033,2.033,0,0,0,917.154,51a2.141,2.141,0,0,0-.889.186,2,2,0,0,0-.7.537,2.482,2.482,0,0,0-.476.827A3.317,3.317,0,0,0,914.922,53.609Z" transform="translate(-821.092 47.658)"/>
    <path id="패스_68" data-name="패스 68" class="cls-1" d="M980.475,58.532h-3.06V52.889a2.289,2.289,0,0,0-.372-1.447,1.258,1.258,0,0,0-.992-.455,1.961,1.961,0,0,0-.661.124,1.908,1.908,0,0,0-.62.372,3.433,3.433,0,0,0-.537.558,2.3,2.3,0,0,0-.372.7v5.747H970.8V48.507h2.75v1.674a3.671,3.671,0,0,1,1.571-1.385,5.248,5.248,0,0,1,2.336-.5,3.157,3.157,0,0,1,1.571.351,2.615,2.615,0,0,1,.93.91,4.007,4.007,0,0,1,.434,1.24,9.443,9.443,0,0,1,.1,1.3v6.429Z" transform="translate(-867.894 47.738)"/>
    <path id="패스_69" data-name="패스 69" class="cls-1" d="M1029.854,58.8a6.027,6.027,0,0,1-2.274-.413,5.194,5.194,0,0,1-1.7-1.137,4.752,4.752,0,0,1-1.034-1.654,5.724,5.724,0,0,1-.351-1.984,5.9,5.9,0,0,1,.351-1.984,4.752,4.752,0,0,1,1.034-1.654,4.7,4.7,0,0,1,1.7-1.137,6.173,6.173,0,0,1,4.548,0,4.933,4.933,0,0,1,2.729,2.791,5.294,5.294,0,0,1,.372,1.984,5.9,5.9,0,0,1-.351,1.984,4.756,4.756,0,0,1-1.034,1.654,4.985,4.985,0,0,1-1.7,1.137A6.214,6.214,0,0,1,1029.854,58.8Zm-2.233-5.189a2.808,2.808,0,0,0,.62,1.9,2.045,2.045,0,0,0,1.613.724,1.981,1.981,0,0,0,.868-.186,2.2,2.2,0,0,0,.7-.537,2.48,2.48,0,0,0,.475-.827,2.962,2.962,0,0,0,.166-1.054,2.809,2.809,0,0,0-.62-1.9,2.033,2.033,0,0,0-1.592-.724,2.141,2.141,0,0,0-.889.186,2,2,0,0,0-.7.537,2.484,2.484,0,0,0-.475.827A2.825,2.825,0,0,0,1027.622,53.609Z" transform="translate(-910.493 47.658)"/>
    <path id="패스_70" data-name="패스 70" class="cls-2" d="M770.2,31.856l4.259-8.434L770.2,16.6Z" transform="translate(-708.765 72.885)"/>
    <path id="패스_71" data-name="패스 71" class="cls-1" d="M779.5,93.316,790.064,83.6l-6.74,2.915Z" transform="translate(-716.143 19.735)"/>
    <path id="패스_72" data-name="패스 72" class="cls-1" d="M780.751,0,770.6,19.659l6.615-3.349,5.727-6.925Z" transform="translate(-709.083 86.053)"/>
    <path id="패스_73" data-name="패스 73" class="cls-2" d="M777.216,78.9,770.6,82.249l5.664.537L783,79.872Z" transform="translate(-709.083 23.463)"/>
  </g>
</svg>
