<svg id="그룹_36" data-name="그룹 36" xmlns="http://www.w3.org/2000/svg" width="89.874" height="26.995" viewBox="0 0 89.874 26.995">
  <defs>
  </defs>
  <path id="패스_74" data-name="패스 74" class="sparcs-logo-cls-1" d="M0,42.747l4.262-8.436L0,27.5Z" transform="translate(0 -24.063)"/>
  <path id="패스_75" data-name="패스 75" class="sparcs-logo-cls-2" d="M15.5,148.011,26.061,138.3l-6.749,2.9Z" transform="translate(-13.563 -121.016)"/>
  <path id="패스_76" data-name="패스 76" class="sparcs-logo-cls-2" d="M10.861,0,.7,19.659,7.311,16.31l5.724-6.924Z" transform="translate(-0.613)"/>
  <path id="패스_77" data-name="패스 77" class="sparcs-logo-cls-1" d="M7.311,130.5.7,133.849l5.662.525,6.749-2.9Z" transform="translate(-0.613 -114.19)"/>
  <path id="패스_78" data-name="패스 78" class="sparcs-logo-cls-2" d="M151.836,57.262a1.8,1.8,0,0,0-.4-.287,7.8,7.8,0,0,0-.85-.437,8.574,8.574,0,0,0-1.125-.4,4.442,4.442,0,0,0-1.212-.175c-1.112,0-1.675.375-1.675,1.125a.947.947,0,0,0,.175.575,1.587,1.587,0,0,0,.537.412,5.413,5.413,0,0,0,.887.337q.544.15,1.237.337a16.843,16.843,0,0,1,1.75.575,5.045,5.045,0,0,1,1.325.775,3.089,3.089,0,0,1,.837,1.125,3.877,3.877,0,0,1,.3,1.6,3.948,3.948,0,0,1-.425,1.925,3.453,3.453,0,0,1-1.125,1.275,4.525,4.525,0,0,1-1.612.7,7.35,7.35,0,0,1-1.887.212,10.432,10.432,0,0,1-1.525-.112,10.721,10.721,0,0,1-1.525-.337,11.555,11.555,0,0,1-1.437-.512,8.557,8.557,0,0,1-1.287-.7l1.362-2.712a2.74,2.74,0,0,0,.487.362,7.393,7.393,0,0,0,1.037.537,11.177,11.177,0,0,0,1.375.475,5.847,5.847,0,0,0,1.537.212q1.65,0,1.65-1.012a.878.878,0,0,0-.25-.625,2.513,2.513,0,0,0-.687-.45,7.316,7.316,0,0,0-1.037-.375c-.4-.112-.837-.237-1.3-.375a12.569,12.569,0,0,1-1.612-.612,4.105,4.105,0,0,1-1.125-.775,2.771,2.771,0,0,1-.675-1.012,3.681,3.681,0,0,1-.212-1.325,4.219,4.219,0,0,1,.4-1.875,4.023,4.023,0,0,1,1.087-1.375,5.126,5.126,0,0,1,1.587-.85,6.562,6.562,0,0,1,1.912-.287,7.457,7.457,0,0,1,1.387.137,11.208,11.208,0,0,1,1.312.337,11.022,11.022,0,0,1,2.175,1.012Z" transform="translate(-124.953 -46.551)"/>
  <path id="패스_79" data-name="패스 79" class="sparcs-logo-cls-2" d="M243.8,67.58V54.095h5.762a3.806,3.806,0,0,1,1.775.4,4.384,4.384,0,0,1,1.387,1.05,4.8,4.8,0,0,1,.912,1.462,4.506,4.506,0,0,1,.025,3.362,4.841,4.841,0,0,1-.875,1.462,4.059,4.059,0,0,1-3.124,1.4h-2.737V67.58Zm3.112-7.061h2.55a1.184,1.184,0,0,0,.95-.475,2.111,2.111,0,0,0,.4-1.387,2.565,2.565,0,0,0-.125-.812,1.786,1.786,0,0,0-.337-.575,1.181,1.181,0,0,0-.475-.337,1.562,1.562,0,0,0-.525-.1h-2.437Z" transform="translate(-213.33 -47.333)"/>
  <path id="패스_80" data-name="패스 80" class="sparcs-logo-cls-2" d="M326.7,54.1h2.812l4.924,13.485h-3.187l-1.037-3.024h-4.2l-1.025,3.024H321.8Zm2.987,8.324-1.575-4.774L326.5,62.424Z" transform="translate(-281.582 -47.339)"/>
  <path id="패스_81" data-name="패스 81" class="sparcs-logo-cls-2" d="M433.5,67.585V54.1h6.074a3.913,3.913,0,0,1,1.762.4,4.787,4.787,0,0,1,1.4,1.05,5.091,5.091,0,0,1,.925,1.462,4.684,4.684,0,0,1,.337,1.65,4.768,4.768,0,0,1-.587,2.3,4.165,4.165,0,0,1-1.612,1.612l2.962,5.012h-3.512l-2.587-4.349h-2.037v4.349Zm3.112-7.061h2.85a1.17,1.17,0,0,0,.95-.525,2.218,2.218,0,0,0,.4-1.337,1.87,1.87,0,0,0-.45-1.325,1.359,1.359,0,0,0-.987-.5h-2.75Z" transform="translate(-379.322 -47.339)"/>
  <path id="패스_82" data-name="패스 82" class="sparcs-logo-cls-2" d="M529.1,60.107a7,7,0,0,1,.45-2.425,6.773,6.773,0,0,1,1.325-2.162A6.612,6.612,0,0,1,533,53.984a6.772,6.772,0,0,1,2.85-.587,6.521,6.521,0,0,1,3.3.812,5.3,5.3,0,0,1,2.075,2.125l-2.387,1.675a2.926,2.926,0,0,0-.575-.887,3.2,3.2,0,0,0-.775-.575,3.14,3.14,0,0,0-.85-.3,3.926,3.926,0,0,0-.85-.087,3.261,3.261,0,0,0-1.562.362,3.562,3.562,0,0,0-1.1.925,3.909,3.909,0,0,0-.65,1.287,5.237,5.237,0,0,0-.213,1.462,4.949,4.949,0,0,0,.25,1.537,4.062,4.062,0,0,0,.712,1.312,3.413,3.413,0,0,0,1.125.9,3.353,3.353,0,0,0,1.475.337,3.966,3.966,0,0,0,.862-.1,3.323,3.323,0,0,0,.85-.325,2.791,2.791,0,0,0,.75-.575,2.606,2.606,0,0,0,.55-.862l2.55,1.5a4.019,4.019,0,0,1-.9,1.325,5.651,5.651,0,0,1-1.375.987,7.177,7.177,0,0,1-1.662.612,7.925,7.925,0,0,1-1.712.212,6.073,6.073,0,0,1-2.687-.6,6.909,6.909,0,0,1-2.112-1.587,7.256,7.256,0,0,1-1.375-2.237A7.121,7.121,0,0,1,529.1,60.107Z" transform="translate(-462.974 -46.722)"/>
  <path id="패스_83" data-name="패스 83" class="sparcs-logo-cls-2" d="M641.611,57.087a1.8,1.8,0,0,0-.4-.287,7.8,7.8,0,0,0-.85-.437,8.572,8.572,0,0,0-1.125-.4,4.354,4.354,0,0,0-1.2-.175c-1.112,0-1.675.375-1.675,1.125a.838.838,0,0,0,.175.562,1.586,1.586,0,0,0,.537.412,5.411,5.411,0,0,0,.887.337q.525.15,1.237.337a16.843,16.843,0,0,1,1.75.575,5.044,5.044,0,0,1,1.325.775,3.09,3.09,0,0,1,.837,1.125,3.878,3.878,0,0,1,.3,1.6,3.949,3.949,0,0,1-.425,1.925,3.453,3.453,0,0,1-1.125,1.275,4.525,4.525,0,0,1-1.612.7,7.844,7.844,0,0,1-1.875.212,10.433,10.433,0,0,1-1.525-.112,10.72,10.72,0,0,1-1.525-.337,10.457,10.457,0,0,1-1.437-.525,8.557,8.557,0,0,1-1.287-.7l1.375-2.712a2.832,2.832,0,0,0,.5.362,7.394,7.394,0,0,0,1.037.537,11.174,11.174,0,0,0,1.375.475,5.847,5.847,0,0,0,1.537.212q1.65,0,1.65-1.012a.829.829,0,0,0-.25-.625,2.338,2.338,0,0,0-.687-.45,7.312,7.312,0,0,0-1.037-.375c-.4-.112-.837-.237-1.3-.375a10.583,10.583,0,0,1-1.625-.612,4.3,4.3,0,0,1-1.125-.775,2.74,2.74,0,0,1-.662-1.012,3.987,3.987,0,0,1-.225-1.325,4.219,4.219,0,0,1,.4-1.875,4.023,4.023,0,0,1,1.087-1.375,5.125,5.125,0,0,1,1.587-.85A6.562,6.562,0,0,1,638.149,53a7.457,7.457,0,0,1,1.387.137,11.67,11.67,0,0,1,1.3.337A9.438,9.438,0,0,1,642,53.95a10.568,10.568,0,0,1,1,.537Z" transform="translate(-553.538 -46.376)"/>
</svg>
