<svg xmlns="http://www.w3.org/2000/svg" width="143.896" height="27.002" viewBox="0 0 143.896 27.002">
  <g id="그룹_42" data-name="그룹 42" transform="translate(0.031 0.046)">
    <g id="그룹_37" data-name="그룹 37" transform="translate(-0.031 -0.046)">
      <path id="패스_84" data-name="패스 84" d="M20.485,7.844c1.572,0,4.354-2.238,4.536-3.629C25.2,2.159,22.783.647,21.392,2.341A2.517,2.517,0,0,0,19.276-.018,1.764,1.764,0,0,0,17.1,1.857c.06,1.331,1.089,2.177,1.935,2.963A5.478,5.478,0,0,1,20.485,7.844Z" transform="translate(-6.738 0.046)"/>
      <path id="패스_85" data-name="패스 85" d="M3.655,21.675h0a4.531,4.531,0,0,1,.968.242,3.158,3.158,0,0,1,1.149.847c.544-.242,1.089-1.391.6-1.754-.242.121-.484.181-.786.3a3.993,3.993,0,0,0,.06-.847,1.342,1.342,0,0,0-.3-.665,1.472,1.472,0,0,0-.907,1.149c-.181-.181-.907-1.028-1.089-.6A1.4,1.4,0,0,0,3.655,21.675Z" transform="translate(-1.277 -7.798)"/>
      <path id="패스_86" data-name="패스 86" d="M5.007,26.526a2.879,2.879,0,0,0-1.693-3.387,2.212,2.212,0,0,0-3.145,1.27,4.2,4.2,0,0,0-.121,2.117c.423,2.056,1.512,2.54,1.875,2.6C2.951,29.248,4.644,27.675,5.007,26.526ZM1.439,25.2c-.06-.121-.121-.726.121-.665C1.681,24.591,1.5,25.438,1.439,25.2Zm-.06,1.512c-.06-.121-.121-.968.181-.847C1.741,25.921,1.5,26.949,1.379,26.708Zm1.21-.726c-.06-.181-.181-1.089.181-.968C3.011,25.075,2.709,26.284,2.588,25.982Zm1.512-.6c.181.121-.363,1.21-.423.907C3.616,26.1,3.737,25.2,4.1,25.377ZM3.072,26.526c.121.06-.06.847-.121.665C2.83,27.07,2.83,26.405,3.072,26.526ZM1.983,28.038c-.06-.121,0-.726.242-.6C2.346,27.494,1.983,28.28,1.983,28.038Z" transform="translate(0.031 -9.021)"/>
      <path id="패스_87" data-name="패스 87" d="M13.2,9.587a4.655,4.655,0,0,0-3.024-3.568A6.852,6.852,0,0,0,8.3,5.656c1.149-1.028,2.056-2.117.847-2.782-.968-.544-2.54.181-3.447.726A7.275,7.275,0,0,0,4.126,4.688a1.064,1.064,0,0,0-1.512-.181A1.921,1.921,0,0,0,1.949,5.6c-.06.3,0,1.149.423,1.27C1.223,8.68.135,11.643,1.828,12.792c.968.544,1.875-.907,2.177-1.814A4.553,4.553,0,0,0,7.09,13.82C9.509,14.607,13.621,12.429,13.2,9.587ZM8.723,10.736A2.666,2.666,0,0,1,5.4,10.192a1.589,1.589,0,0,1-.181-1.572A8.427,8.427,0,0,1,6.122,7.47c.121-.121.3-.242.484-.423.6-.484,1.512-.181,2.177.786C9.327,8.68,9.751,10.01,8.723,10.736Z" transform="translate(-0.358 -1.032)"/>
      <path id="패스_88" data-name="패스 88" d="M31.962,18.734a3.311,3.311,0,0,0-.484-2.721,1.313,1.313,0,0,0-2.3.181,23.027,23.027,0,0,0-.726,3.084c-.181.544-.242,1.149-.423,1.633-.121.484-.726,3.689.484,4.415a19.685,19.685,0,0,0,4.415,1.451c3.508.665,4.778-3.508,4.9-5.927a10.19,10.19,0,0,0-.242-3.326c-.363-1.089-1.875-1.754-2.117-.242-.121.907.242,2.238-.786,2.842a2.44,2.44,0,0,1-1.512.06C31.781,19.823,31.962,18.734,31.962,18.734Zm2.056,5.745c-.786.665-2.3.242-3.024-.242-1.089-.665-.968-1.693-.181-2.54l.363-.242a3.886,3.886,0,0,1,2.419.665A1.435,1.435,0,0,1,34.019,24.48Z" transform="translate(-10.958 -6.067)"/>
      <path id="패스_89" data-name="패스 89" d="M15.971,29.889c-2.54-2.359-6.108-2.6-8.467.06a3.665,3.665,0,0,0-.665,3.81,4.964,4.964,0,0,0,2.9,3.205c2,.907,4.475,1.512,6.532.121C18.813,35.332,17.967,31.764,15.971,29.889Zm-3.387,5.322a2.513,2.513,0,0,1-2.6.06,2.741,2.741,0,0,1-1.21-1.391,1.4,1.4,0,0,1,.3-1.512,2.245,2.245,0,0,1,3.387,0C13.31,33.095,13.612,34.546,12.584,35.211Z" transform="translate(-2.586 -11.053)"/>
      <path id="패스_90" data-name="패스 90" d="M21.465,21.319A2.146,2.146,0,0,1,22.856,18.9v.363a1.766,1.766,0,0,0,.544-.121,1.835,1.835,0,0,1-.544,1.693,3.523,3.523,0,0,1-.907.665C21.647,21.561,22.07,21.38,21.465,21.319Z" transform="translate(-8.444 -7.442)"/>
      <path id="패스_91" data-name="패스 91" d="M25.042,23.5c.06-.06.181-.06.242-.121a.211.211,0,0,0-.121-.06,1.955,1.955,0,0,0-1.331-.423,3.993,3.993,0,0,0-.847.06c-.242.06-.484.242-.726.3a.962.962,0,0,1-.06.544c.121.06.3.121.423.181a3.039,3.039,0,0,0,1.633.3,3.5,3.5,0,0,0,.847-.3c.121-.121.181-.121.121-.242C25.163,23.686,25.042,23.626,25.042,23.5Z" transform="translate(-8.755 -9.023)"/>
      <path id="패스_92" data-name="패스 92" d="M21.069,25.081a2.537,2.537,0,0,0-.121,1.633,2.577,2.577,0,0,0,.907,1.21c.06-.06.06-.3.181-.3s.181.181.3.181.181-.6.181-.786a4.119,4.119,0,0,0-.423-1.693,1.076,1.076,0,0,0-.484-.423C21.492,25.142,21.311,25.142,21.069,25.081Z" transform="translate(-8.229 -9.814)"/>
      <path id="패스_93" data-name="패스 93" d="M18.442,23.928a2.878,2.878,0,0,0-1.572-.242,2.811,2.811,0,0,0-1.27.786c.06.06.242.121.3.242,0,.121-.181.181-.181.3s.6.181.786.181a3.257,3.257,0,0,0,1.693-.3,1.076,1.076,0,0,0,.484-.423A.4.4,0,0,1,18.442,23.928Z" transform="translate(-6.147 -9.325)"/>
      <path id="패스_94" data-name="패스 94" d="M19.11,22.092a2.152,2.152,0,0,1-.968-.847A1.984,1.984,0,0,1,17.9,20.1a.462.462,0,0,1,.3.121c.06-.121.06-.242.121-.363s.181-.06.3,0a1.324,1.324,0,0,1,.6.544,1.874,1.874,0,0,1,.363.786,1.489,1.489,0,0,1,.06.726h-.3a.457.457,0,0,1-.06.242H19.17" transform="translate(-7.056 -7.792)"/>
      <circle id="타원_1" data-name="타원 1" cx="0.847" cy="0.847" r="0.847" transform="translate(19.735 4.684)"/>
      <path id="패스_95" data-name="패스 95" d="M29.951,8.629c6.773.3,2-3.447,2-3.447s-.423-.6.06-.907c0,0,.6-.363,1.935,1.149,0,0,3.992,4.173.06,8.225,0,0-.242-3.387-2.9-3.447,0,0-2.6.242-2.6-.726C28.56,9.476,28.44,8.508,29.951,8.629Z" transform="translate(-11.245 -1.647)"/>
      <path id="패스_96" data-name="패스 96" d="M26.085,41.146a13.193,13.193,0,0,0,7.681-4.6c.544-.726-.363-.484-.363-.484a10.114,10.114,0,0,1-2.48,0c-4.838-.544-4.6,3.326-4.6,3.326a1.988,1.988,0,0,1-.484,1.21C25.843,40.541,24.815,41.448,26.085,41.146Z" transform="translate(-10.04 -14.206)"/>
    </g>
    <g id="그룹_41" data-name="그룹 41" transform="translate(34.278 2.22)">
      <g id="그룹_39" data-name="그룹 39">
        <g id="그룹_38" data-name="그룹 38">
          <path id="패스_97" data-name="패스 97" d="M65.288,9.022a3.666,3.666,0,0,0-.665-2.117h.786a.847.847,0,0,0,0-1.693H62.324V4.547a.847.847,0,1,0-1.693,0v.726H57.547a.847.847,0,1,0,0,1.693h.786a3.666,3.666,0,0,0-.665,2.117,3.768,3.768,0,0,0,3.75,3.75A3.886,3.886,0,0,0,65.288,9.022Zm-5.866,0a2.117,2.117,0,1,1,2.117,2.117A2.143,2.143,0,0,1,59.421,9.022Z" transform="translate(-56.7 -3.7)"/>
          <path id="패스_98" data-name="패스 98" d="M90.65,10.6a3.643,3.643,0,0,0,2.9,1.391.847.847,0,1,0,0-1.693A2.039,2.039,0,0,1,91.5,8.242v-2a.847.847,0,0,0-1.693,0V8.3a2.039,2.039,0,0,1-2.056,2.056.847.847,0,1,0,0,1.693A3.883,3.883,0,0,0,90.65,10.6Z" transform="translate(-68.636 -4.372)"/>
          <path id="패스_99" data-name="패스 99" d="M145.83,16.379a3.162,3.162,0,0,1-3.145-3.145V8.093h2.661a.847.847,0,1,0,0-1.693H138.33a.847.847,0,0,0,0,1.693h2.661v5.141a3.162,3.162,0,0,1-3.145,3.145.847.847,0,0,0,0,1.693,4.735,4.735,0,0,0,3.931-2.117,4.735,4.735,0,0,0,3.931,2.117.827.827,0,0,0,.847-.847A.681.681,0,0,0,145.83,16.379Z" transform="translate(-88.437 -4.767)"/>
          <path id="패스_100" data-name="패스 100" d="M98.836,18.2H94.663A2.956,2.956,0,0,0,91.7,21.1a3.008,3.008,0,0,0,2.963,2.963h4.173A2.968,2.968,0,0,0,101.8,21.1,2.917,2.917,0,0,0,98.836,18.2Zm0,4.233H94.663a1.27,1.27,0,0,1,0-2.54h4.173a1.24,1.24,0,0,1,1.27,1.27A1.277,1.277,0,0,1,98.836,22.433Z" transform="translate(-70.533 -9.431)"/>
          <path id="패스_101" data-name="패스 101" d="M81.089,7.759h-2V6.247a.847.847,0,1,0-1.693,0V13.02a.847.847,0,1,0,1.693,0V9.392h2a.827.827,0,0,0,.847-.847A.815.815,0,0,0,81.089,7.759Z" transform="translate(-64.881 -4.372)"/>
          <path id="패스_102" data-name="패스 102" d="M104.51,5.4a.827.827,0,0,0-.847.847V7.759h-1.27V6.247a.847.847,0,0,0-1.693,0v4.838a.847.847,0,0,0,1.693,0V9.392h1.27v1.633a.847.847,0,0,0,1.693,0V6.186A.856.856,0,0,0,104.51,5.4Z" transform="translate(-74.09 -4.372)"/>
          <path id="패스_103" data-name="패스 103" d="M123.23,21.3h-7.983a.847.847,0,1,0,0,1.693h7.983a.193.193,0,0,1,.181.181v1.451a.847.847,0,1,0,1.693,0V23.175A1.884,1.884,0,0,0,123.23,21.3Z" transform="translate(-79.504 -10.656)"/>
          <path id="패스_104" data-name="패스 104" d="M71.33,21.3H63.347a.847.847,0,0,0,0,1.693H71.33a.193.193,0,0,1,.181.181v1.451a.847.847,0,0,0,1.693,0V23.175A1.884,1.884,0,0,0,71.33,21.3Z" transform="translate(-58.992 -10.656)"/>
          <path id="패스_105" data-name="패스 105" d="M202.358,23.405h-7.983a.193.193,0,0,1-.181-.181V21.047a.847.847,0,1,0-1.693,0v2.177a1.884,1.884,0,0,0,1.875,1.875h7.983a.827.827,0,0,0,.847-.847A.865.865,0,0,0,202.358,23.405Z" transform="translate(-110.372 -10.221)"/>
          <path id="패스_106" data-name="패스 106" d="M124.914,12.194h-4.838V11.106h3.689a.827.827,0,0,0,.847-.847V6.147a.847.847,0,1,0-1.693,0V6.51H115.6V6.147a.847.847,0,1,0-1.693,0V9.231a1.884,1.884,0,0,0,1.875,1.875h2.6v1.089h-4.536a.847.847,0,1,0,0,1.693h11.007a.827.827,0,0,0,.847-.847A.815.815,0,0,0,124.914,12.194Zm-9.193-2.782a.193.193,0,0,1-.181-.181V8.142h7.318v1.27Z" transform="translate(-78.951 -4.332)"/>
          <path id="패스_107" data-name="패스 107" d="M228.516,4.886a.827.827,0,0,0-.847.847v9.495h-5.745v-2.3a3.759,3.759,0,0,0,2.9-3.629,3.907,3.907,0,0,0-.6-2.056h.726a.847.847,0,0,0,0-1.693h-3.024v-.6a.847.847,0,0,0-1.693,0v.665h-3.024a.847.847,0,0,0,0,1.693h.726a3.907,3.907,0,0,0-.6,2.056,3.746,3.746,0,0,0,2.9,3.629v2.3h-3.084a.847.847,0,1,0,0,1.693h10.463v.907a.847.847,0,0,0,1.693,0V5.733A.748.748,0,0,0,228.516,4.886Zm-7.378,6.471h0A2.056,2.056,0,1,1,223.194,9.3a2.078,2.078,0,0,1-2.056,2.056Z" transform="translate(-119.778 -3.858)"/>
          <path id="패스_108" data-name="패스 108" d="M175.835,5.36a.827.827,0,0,0-.847.847v5.685h-2.661a3.968,3.968,0,0,0,.847-2.48,4.113,4.113,0,1,0-7.378,2.48h-1.149a.847.847,0,0,0,0,1.693H168.7v4.778a.847.847,0,1,0,1.693,0V13.585h4.778v4.657a.847.847,0,0,0,1.693,0V6.207A1.15,1.15,0,0,0,175.835,5.36Zm-6.773,6.532a2.48,2.48,0,1,1,2.48-2.48A2.491,2.491,0,0,1,169.062,11.892Z" transform="translate(-99.029 -4.332)"/>
          <path id="패스_109" data-name="패스 109" d="M157.247,5.4a.827.827,0,0,0-.847.847V18.282a.847.847,0,0,0,1.693,0V6.247A.827.827,0,0,0,157.247,5.4Z" transform="translate(-96.104 -4.372)"/>
          <path id="패스_110" data-name="패스 110" d="M194.424,14.695a.847.847,0,0,0,1.693,0V12.881h3.931V15a.847.847,0,1,0,1.693,0V6.168a.847.847,0,1,0-1.693,0v5.02h-2.3a3.718,3.718,0,0,0,.665-2.177,3.81,3.81,0,1,0-7.62,0,3.858,3.858,0,0,0,.665,2.177h-1.814a.847.847,0,0,0,0,1.693h4.778v1.814Zm-2-5.685a2.177,2.177,0,1,1,2.177,2.177A2.168,2.168,0,0,1,192.429,9.01Z" transform="translate(-108.909 -4.293)"/>
        </g>
      </g>
      <g id="그룹_40" data-name="그룹 40" transform="translate(1.149 16.45)">
        <path id="패스_111" data-name="패스 111" d="M94.942,34.163a2.63,2.63,0,0,0-.423-.363c-.181-.121-.3-.181-.484-.3a2.629,2.629,0,0,1-.423-.242,1.322,1.322,0,0,1-.3-.181l-.181-.181a.364.364,0,0,1-.06-.242c0-.121,0-.181.06-.242l.181-.181c.06-.06.181-.06.3-.121a2.619,2.619,0,0,0,.3-.06c.181,0,.363.06.484.06h.181c.242,0,.363-.06.423-.181a.654.654,0,0,0,.181-.423.13.13,0,0,0-.121-.121,2.527,2.527,0,0,0-1.089-.181,2.481,2.481,0,0,0-.665.06,1.811,1.811,0,0,0-.6.242,1.63,1.63,0,0,0-.423.484,1.219,1.219,0,0,0-.181.665,1.444,1.444,0,0,0,.121.544,1.582,1.582,0,0,0,.726.726,5.579,5.579,0,0,1,.484.3,2.629,2.629,0,0,1,.423.242.6.6,0,0,1,.3.242.835.835,0,0,1,.181.242.364.364,0,0,1,.06.242.471.471,0,0,1-.181.423.973.973,0,0,1-.665.181h-.3a2.619,2.619,0,0,1-.3-.06c-.121-.06-.181-.06-.3-.121a.835.835,0,0,1-.242-.181c-.06,0-.06-.06-.121-.06h-.06c-.06,0-.121.121-.121.181v.665c0,.06,0,.121.06.121a.462.462,0,0,0,.3.121c.121.06.242.06.363.121.121,0,.242.06.363.06h.3a2.268,2.268,0,0,0,.665-.06,1.811,1.811,0,0,0,.6-.242,1.63,1.63,0,0,0,.423-.484,1.29,1.29,0,0,0,.181-.726,1.208,1.208,0,0,0-.121-.544A1.085,1.085,0,0,0,94.942,34.163Z" transform="translate(-71.84 -31.019)"/>
        <path id="패스_112" data-name="패스 112" d="M105.684,33.66h-.544a.16.16,0,0,0-.181.181V35.9a.754.754,0,0,1-.242.665.59.59,0,0,1-.544.242c-.3,0-.665-.121-.665-.968V33.781a.16.16,0,0,0-.181-.181h-.544a.16.16,0,0,0-.181.181V35.9c0,1.391.726,1.693,1.391,1.693a1.485,1.485,0,0,0,.907-.3v.06a.193.193,0,0,0,.181.181h.06a.631.631,0,0,0,.665-.665V33.842C105.866,33.721,105.805,33.66,105.684,33.66Z" transform="translate(-75.99 -31.967)"/>
        <path id="패스_113" data-name="패스 113" d="M112.526,30.9h-.544a.16.16,0,0,0-.181.181v1.754a1.509,1.509,0,0,0-2.117.3,2.381,2.381,0,0,0-.484,1.512,1.92,1.92,0,0,0,.423,1.391,1.4,1.4,0,0,0,1.149.544,1.526,1.526,0,0,0,1.028-.363v.121a.193.193,0,0,0,.181.181h.06a.631.631,0,0,0,.665-.665V31.081A.193.193,0,0,0,112.526,30.9Zm-1.633,4.838a.84.84,0,0,1-.6-.3,1.182,1.182,0,0,1-.242-.847,1.534,1.534,0,0,1,.242-.968.866.866,0,0,1,.665-.3.59.59,0,0,1,.544.242.776.776,0,0,1,.242.6v.544a1.215,1.215,0,0,1-.242.786A.575.575,0,0,1,110.893,35.738Z" transform="translate(-78.598 -30.9)"/>
        <path id="패스_114" data-name="패스 114" d="M124.575,33.6a1.373,1.373,0,0,0-.968.363v-.121a.16.16,0,0,0-.181-.181h-.544a.16.16,0,0,0-.181.181V37.41a.193.193,0,0,0,.181.181h.06a.631.631,0,0,0,.665-.665V35.414a.964.964,0,0,1,.242-.726.59.59,0,0,1,.544-.242c.181,0,.6,0,.6.968v2.056c0,.06.06.181.121.181h.121a.65.65,0,0,0,.665-.726V35.293a2.224,2.224,0,0,0-.3-1.21A1.292,1.292,0,0,0,124.575,33.6Z" transform="translate(-83.934 -31.967)"/>
        <path id="패스_115" data-name="패스 115" d="M154.826,31.1h-.544a.16.16,0,0,0-.181.181v5.262a.16.16,0,0,0,.181.181h0a.67.67,0,0,0,.726-.665V31.281A.193.193,0,0,0,154.826,31.1Z" transform="translate(-96.344 -30.979)"/>
        <path id="패스_116" data-name="패스 116" d="M158.368,31.747h0a.55.55,0,0,0,.544-.6c0-.06-.06-.121-.121-.181a1.179,1.179,0,0,0-.484-.06,1.231,1.231,0,0,0-.907.363,1.423,1.423,0,0,0-.363,1.028v.423a.509.509,0,0,0-.423.242.563.563,0,0,0-.121.484.193.193,0,0,0,.181.181h.423v2.9a.16.16,0,0,0,.181.181h0a.649.649,0,0,0,.726-.665V33.682h.121a.739.739,0,0,0,.544-.181.68.68,0,0,0,.181-.484.16.16,0,0,0-.181-.181h-.6v-.363C157.945,31.747,158.248,31.747,158.368,31.747Z" transform="translate(-97.286 -30.9)"/>
        <path id="패스_117" data-name="패스 117" d="M162.272,33.8a2.236,2.236,0,0,0-1.27.363.222.222,0,0,0-.061.181.472.472,0,0,0,.484.484.364.364,0,0,0,.242-.06,2.661,2.661,0,0,1,.6-.121c.242,0,.484.06.544.6l-.847.121c-1.089.121-1.27.786-1.27,1.331a1.015,1.015,0,0,0,.363.847,1.231,1.231,0,0,0,.907.363,1.486,1.486,0,0,0,.907-.3v.06a.193.193,0,0,0,.181.181h.06a.631.631,0,0,0,.665-.665V35.372C163.663,34.042,162.877,33.8,162.272,33.8Zm-.3,3.266a.648.648,0,0,1-.363-.121.462.462,0,0,1-.121-.3.511.511,0,0,1,.121-.363,4.164,4.164,0,0,1,.484-.181l.6-.06v.181a.909.909,0,0,1-.242.665A.73.73,0,0,1,161.97,37.066Z" transform="translate(-98.952 -32.046)"/>
        <path id="패스_118" data-name="패스 118" d="M169.056,33.96a.9.9,0,0,0-.423-.06.91.91,0,0,0-.665.242l-.06.06v-.121a.16.16,0,0,0-.181-.181h-.544a.16.16,0,0,0-.181.181V37.65a.193.193,0,0,0,.181.181h.061a.631.631,0,0,0,.665-.665V35.9a1.6,1.6,0,0,1,.181-.847.491.491,0,0,1,.484-.242.758.758,0,0,0,.6-.665C169.117,34.021,169.117,33.96,169.056,33.96Z" transform="translate(-101.442 -32.086)"/>
        <path id="패스_119" data-name="패스 119" d="M183.1,32.407a1.674,1.674,0,0,1,.544.06h.181c.363,0,.544-.363.6-.544,0-.06,0-.181-.121-.181a3.29,3.29,0,0,0-1.21-.242,2.341,2.341,0,0,0-1.875.786,2.946,2.946,0,0,0-.726,2.056,2.885,2.885,0,0,0,.665,1.935,2.237,2.237,0,0,0,1.754.726,3.154,3.154,0,0,0,1.391-.3c.06-.06.121-.121.06-.181a.553.553,0,0,0-.6-.484h-.3a1.674,1.674,0,0,1-.544.06,1.548,1.548,0,0,1-1.149-.484,1.856,1.856,0,0,1-.423-1.331,1.935,1.935,0,0,1,.484-1.391A1.837,1.837,0,0,1,183.1,32.407Z" transform="translate(-106.778 -31.137)"/>
        <path id="패스_120" data-name="패스 120" d="M189.735,33.9a1.822,1.822,0,0,0-1.391.544,2.108,2.108,0,0,0-.544,1.512,2.207,2.207,0,0,0,.484,1.451,1.778,1.778,0,0,0,1.33.544,1.916,1.916,0,0,0,1.391-.544,2.012,2.012,0,0,0,.544-1.512,2.1,2.1,0,0,0-.484-1.451A1.778,1.778,0,0,0,189.735,33.9Zm-.786,1.149a1,1,0,0,1,.726-.3.78.78,0,0,1,.665.3,1.458,1.458,0,0,1,.242.907,1.255,1.255,0,0,1-.242.907.867.867,0,0,1-.665.3,1,1,0,0,1-.726-.3,1.255,1.255,0,0,1-.242-.907A1.458,1.458,0,0,1,188.949,35.049Z" transform="translate(-109.663 -32.086)"/>
        <path id="패스_121" data-name="패스 121" d="M199.031,34a1.221,1.221,0,0,0-1.089.544.729.729,0,0,0-.3-.3.964.964,0,0,0-.726-.242,1.485,1.485,0,0,0-.907.3v-.06a.16.16,0,0,0-.181-.181h-.544a.16.16,0,0,0-.181.181V37.81c0,.06.061.181.121.181h.06a.631.631,0,0,0,.665-.665V35.814a1.29,1.29,0,0,1,.181-.726.491.491,0,0,1,.484-.242c.3,0,.6.121.6.907v2.117a.193.193,0,0,0,.181.181h.06a.713.713,0,0,0,.726-.665V35.875a1.162,1.162,0,0,1,.242-.726.55.55,0,0,1,.484-.242c.242,0,.363.06.423.181.121.121.121.423.121.786v2.056a.193.193,0,0,0,.181.181h.06a.713.713,0,0,0,.726-.665V35.754C200.3,34.242,199.636,34,199.031,34Z" transform="translate(-112.548 -32.125)"/>
        <path id="패스_122" data-name="패스 122" d="M209.031,34a1.221,1.221,0,0,0-1.089.544.729.729,0,0,0-.3-.3.964.964,0,0,0-.726-.242,1.485,1.485,0,0,0-.907.3v-.06a.16.16,0,0,0-.181-.181h-.544a.16.16,0,0,0-.181.181V37.81c0,.06.061.181.121.181h.06a.631.631,0,0,0,.665-.665V35.814a1.29,1.29,0,0,1,.181-.726.491.491,0,0,1,.484-.242c.3,0,.6.121.6.907v2.117a.193.193,0,0,0,.181.181h.06a.713.713,0,0,0,.726-.665V35.875a1.056,1.056,0,0,1,.242-.726.55.55,0,0,1,.484-.242c.242,0,.363.06.423.181a1.662,1.662,0,0,1,.121.786v2.056a.193.193,0,0,0,.181.181h.06a.713.713,0,0,0,.726-.665V35.754C210.362,34.3,209.636,34,209.031,34Z" transform="translate(-116.5 -32.125)"/>
        <path id="패스_123" data-name="패스 123" d="M215.926,34.2h-.544a.16.16,0,0,0-.181.181V37.95c0,.06.06.181.121.181h.121c.3,0,.6-.181.665-.726V34.381A.16.16,0,0,0,215.926,34.2Z" transform="translate(-120.492 -32.204)"/>
        <path id="패스_124" data-name="패스 124" d="M215.644,31.4a.431.431,0,0,0-.363.181.523.523,0,0,0-.181.363.366.366,0,0,0,.181.363.523.523,0,0,0,.363.181.431.431,0,0,0,.363-.181.523.523,0,0,0,.181-.363.366.366,0,0,0-.181-.363A.431.431,0,0,0,215.644,31.4Z" transform="translate(-120.453 -31.098)"/>
        <path id="패스_125" data-name="패스 125" d="M219.831,36.473h-.181c-.06.06-.121.06-.242.06a.353.353,0,0,1-.242-.06,1.477,1.477,0,0,1-.06-.423V34.235h.181a.739.739,0,0,0,.544-.181.419.419,0,0,0,.121-.484.193.193,0,0,0-.181-.181h-.665v-.907c0-.06,0-.121-.06-.121a.211.211,0,0,0-.121-.06h-.06l-.544.181c-.06,0-.121.06-.121.181v.726a.747.747,0,0,0-.484.242.563.563,0,0,0-.121.484c0,.06.06.121.181.121h.423v1.935c0,1.028.6,1.21,1.089,1.21a.59.59,0,0,0,.544-.242.861.861,0,0,0,.121-.6C219.892,36.594,219.831,36.533,219.831,36.473Z" transform="translate(-121.434 -31.453)"/>
        <path id="패스_126" data-name="패스 126" d="M130.971,36.073h-.181a.364.364,0,0,1-.242.06.353.353,0,0,1-.242-.06c-.06-.06-.06-.181-.06-.423V33.835h.181a.739.739,0,0,0,.544-.181.68.68,0,0,0,.181-.484.193.193,0,0,0-.181-.181h-.665v-.907c0-.06,0-.121-.06-.121a.211.211,0,0,0-.121-.06h-.06l-.544.181c-.06,0-.121.06-.121.181v.726a.747.747,0,0,0-.484.242.563.563,0,0,0-.121.484c0,.06.061.121.181.121h.423v1.935c0,1.028.6,1.21,1.089,1.21a.59.59,0,0,0,.544-.242.861.861,0,0,0,.121-.6C131.092,36.194,131.031,36.133,130.971,36.073Z" transform="translate(-86.338 -31.295)"/>
        <path id="패스_127" data-name="패스 127" d="M100.271,35.973h-.181a.364.364,0,0,1-.242.06c-.121,0-.181,0-.242-.06s-.06-.121-.06-.423V33.735h.181a.739.739,0,0,0,.544-.181.68.68,0,0,0,.181-.484.193.193,0,0,0-.181-.181h-.665v-.907c0-.06,0-.121-.06-.121s-.06-.06-.121-.06h-.06l-.544.181c-.06,0-.121.06-.121.181v.726a.747.747,0,0,0-.484.242.563.563,0,0,0-.121.484c0,.06.06.121.181.121H98.7v1.935c0,1.028.6,1.21,1.089,1.21a.59.59,0,0,0,.544-.242.861.861,0,0,0,.121-.6C100.331,36.033,100.331,35.973,100.271,35.973Z" transform="translate(-74.205 -31.256)"/>
        <path id="패스_128" data-name="패스 128" d="M223.931,36.573h-.181c-.06.06-.121.06-.242.06a.354.354,0,0,1-.242-.06,1.477,1.477,0,0,1-.06-.423V34.335h.181a.739.739,0,0,0,.544-.181.419.419,0,0,0,.121-.484.193.193,0,0,0-.181-.181h-.665v-.907c0-.06,0-.121-.06-.121a.211.211,0,0,0-.121-.06h-.06l-.544.181c-.06,0-.121.06-.121.181v.726a.747.747,0,0,0-.484.242.563.563,0,0,0-.121.484c0,.06.06.121.181.121h.423v1.935c0,1.028.6,1.21,1.089,1.21a.59.59,0,0,0,.544-.242.861.861,0,0,0,.121-.6C223.992,36.633,223.992,36.573,223.931,36.573Z" transform="translate(-123.055 -31.493)"/>
        <path id="패스_129" data-name="패스 129" d="M229.1,34.544A1.4,1.4,0,0,0,227.954,34a1.6,1.6,0,0,0-1.27.6,2.207,2.207,0,0,0-.484,1.451,2.361,2.361,0,0,0,.423,1.512,1.562,1.562,0,0,0,1.27.544,2.507,2.507,0,0,0,.968-.181.813.813,0,0,0,.423-.363.754.754,0,0,0,0-.544c0-.06-.06-.06-.121-.121h-.06c-.061,0-.061,0-.121.06a1.483,1.483,0,0,1-.968.363.754.754,0,0,1-.665-.242.924.924,0,0,1-.242-.6H228.8a.739.739,0,0,0,.544-.181.654.654,0,0,0,.181-.423A2.662,2.662,0,0,0,229.1,34.544Zm-2,1.028a1.216,1.216,0,0,1,.242-.484.589.589,0,0,1,.544-.242.491.491,0,0,1,.484.242.687.687,0,0,1,.181.484Z" transform="translate(-124.84 -32.125)"/>
        <path id="패스_130" data-name="패스 130" d="M173.8,34.344a1.4,1.4,0,0,0-1.149-.544,1.6,1.6,0,0,0-1.27.6,2.207,2.207,0,0,0-.484,1.451,2.361,2.361,0,0,0,.423,1.512,1.562,1.562,0,0,0,1.27.544,2.507,2.507,0,0,0,.968-.181.639.639,0,0,0,.423-.363.754.754,0,0,0,0-.544c0-.06-.061-.06-.121-.121h-.06c-.06,0-.06,0-.121.06a1.483,1.483,0,0,1-.968.363.754.754,0,0,1-.665-.242.924.924,0,0,1-.242-.6H173.5a.739.739,0,0,0,.544-.181.654.654,0,0,0,.181-.423A2.469,2.469,0,0,0,173.8,34.344Zm-2,1.028a1.216,1.216,0,0,1,.242-.484.59.59,0,0,1,.544-.242.491.491,0,0,1,.484.242.687.687,0,0,1,.181.484Z" transform="translate(-102.984 -32.046)"/>
        <path id="패스_131" data-name="패스 131" d="M150.4,34.244a1.4,1.4,0,0,0-1.149-.544,1.6,1.6,0,0,0-1.27.6,2.207,2.207,0,0,0-.484,1.451,2.361,2.361,0,0,0,.423,1.512,1.562,1.562,0,0,0,1.27.544,2.507,2.507,0,0,0,.968-.181.639.639,0,0,0,.423-.363.754.754,0,0,0,0-.544c0-.06-.06-.06-.121-.121H150.4c-.06,0-.06,0-.121.06a1.483,1.483,0,0,1-.968.363.754.754,0,0,1-.665-.242.924.924,0,0,1-.242-.6H150.1a.739.739,0,0,0,.544-.181.654.654,0,0,0,.181-.423A2.469,2.469,0,0,0,150.4,34.244Zm-2,1.028a1.216,1.216,0,0,1,.242-.484.59.59,0,0,1,.544-.242.491.491,0,0,1,.484.242.687.687,0,0,1,.181.484Z" transform="translate(-93.735 -32.007)"/>
        <path id="패스_132" data-name="패스 132" d="M119.1,34.144a1.4,1.4,0,0,0-1.149-.544,1.6,1.6,0,0,0-1.27.6,2.207,2.207,0,0,0-.484,1.451,2.361,2.361,0,0,0,.423,1.512,1.562,1.562,0,0,0,1.27.544,2.507,2.507,0,0,0,.968-.181.639.639,0,0,0,.423-.363.754.754,0,0,0,0-.544c0-.06-.06-.06-.121-.121h-.06c-.06,0-.06,0-.121.06a1.483,1.483,0,0,1-.968.363.754.754,0,0,1-.665-.242,1.075,1.075,0,0,1-.242-.6H118.8a.739.739,0,0,0,.544-.181.654.654,0,0,0,.181-.423A2.3,2.3,0,0,0,119.1,34.144Zm-2,.968a1.216,1.216,0,0,1,.242-.484.59.59,0,0,1,.544-.242.491.491,0,0,1,.484.242.687.687,0,0,1,.181.484Z" transform="translate(-81.365 -31.967)"/>
        <path id="패스_133" data-name="패스 133" d="M235.545,36.277a.654.654,0,0,0,.181-.423,1.948,1.948,0,0,0-.423-1.21,1.4,1.4,0,0,0-1.149-.544,1.6,1.6,0,0,0-1.27.6,2.207,2.207,0,0,0-.484,1.451,2.361,2.361,0,0,0,.423,1.512,1.562,1.562,0,0,0,1.27.544,2.507,2.507,0,0,0,.968-.181.639.639,0,0,0,.423-.363.754.754,0,0,0,0-.544c0-.06-.06-.06-.121-.121h-.06c-.06,0-.06,0-.121.06a1.483,1.483,0,0,1-.968.363.754.754,0,0,1-.665-.242,1.074,1.074,0,0,1-.242-.6H235A2.176,2.176,0,0,0,235.545,36.277Zm-1.935-1.089a.589.589,0,0,1,.544-.242.491.491,0,0,1,.484.242.687.687,0,0,1,.181.484h-1.451A.628.628,0,0,1,233.61,35.189Z" transform="translate(-127.29 -32.165)"/>
        <path id="패스_134" data-name="패스 134" d="M142.754,31.46h-.181a.67.67,0,0,0-.726.544c-.242.968-.665,2.419-.847,3.266-.242-.968-.726-2.782-.968-3.689,0-.06-.06-.121-.181-.121h-.484c-.06,0-.121.06-.181.121-.242.907-.726,2.661-1.028,3.689-.121-.6-.423-1.572-.786-3.145l-.061-.181a.67.67,0,0,0-.726-.544H136.4c-.06,0-.06.06-.121.06,0,.06-.06.121,0,.121l1.391,5.02c0,.06.06.121.181.121h.181a.831.831,0,0,0,.786-.544l.061-.3c.363-1.331.6-2.238.726-2.782.242,1.089.786,2.963.786,3.084a.831.831,0,0,0,.786.544h.181c.06,0,.121-.06.181-.121L143,31.642v-.121C142.814,31.521,142.814,31.46,142.754,31.46Z" transform="translate(-89.291 -31.098)"/>
        <path id="패스_135" data-name="패스 135" d="M73.926,31.2h-.544a.16.16,0,0,0-.181.181V36.4a.16.16,0,0,0,.181.181h.06a.679.679,0,0,0,.726-.665V31.442C74.107,31.26,74.047,31.2,73.926,31.2Z" transform="translate(-64.37 -31.019)"/>
        <path id="패스_136" data-name="패스 136" d="M78.542,34.063c-.121-.121-.3-.242-.423-.363-.181-.121-.3-.181-.484-.3a2.629,2.629,0,0,1-.423-.242,1.322,1.322,0,0,1-.3-.181l-.181-.181a.364.364,0,0,1-.06-.242c0-.121,0-.181.06-.242l.181-.181c.06-.06.181-.06.3-.121a2.619,2.619,0,0,0,.3-.06c.181,0,.363.06.484.06h.181c.242,0,.363-.06.423-.181a.654.654,0,0,0,.181-.423.211.211,0,0,0-.06-.121,2.527,2.527,0,0,0-1.089-.181,2.481,2.481,0,0,0-.665.06,1.811,1.811,0,0,0-.6.242,1.63,1.63,0,0,0-.423.484,1.219,1.219,0,0,0-.181.665,1.444,1.444,0,0,0,.121.544,1.582,1.582,0,0,0,.726.726,3.376,3.376,0,0,0,.484.3,2.629,2.629,0,0,1,.423.242.6.6,0,0,1,.3.242A.835.835,0,0,1,78,34.85a.364.364,0,0,1,.06.242.471.471,0,0,1-.181.423.973.973,0,0,1-.665.181h-.3a2.619,2.619,0,0,1-.3-.06c-.121-.06-.181-.06-.3-.121a.835.835,0,0,1-.242-.181.222.222,0,0,0-.181-.06h-.06c-.06,0-.121.06-.121.181v.665c0,.06,0,.121.06.121a.462.462,0,0,0,.3.121c.121.06.242.06.363.121.121,0,.242.06.363.06h.3a2.268,2.268,0,0,0,.665-.06,1.811,1.811,0,0,0,.6-.242,1.63,1.63,0,0,0,.423-.484,1.29,1.29,0,0,0,.181-.726,1.208,1.208,0,0,0-.121-.544A1.838,1.838,0,0,0,78.542,34.063Z" transform="translate(-65.358 -30.979)"/>
        <path id="패스_137" data-name="패스 137" d="M85.041,31.2H82.38a.826.826,0,0,0-.665.242.474.474,0,0,0-.121.423c0,.06.06.121.181.121h1.149v4.354a.16.16,0,0,0,.181.181h.06a.679.679,0,0,0,.726-.665v-3.81h.6a.739.739,0,0,0,.544-.181.68.68,0,0,0,.181-.484C85.162,31.321,85.1,31.2,85.041,31.2Z" transform="translate(-67.684 -31.019)"/>
        <path id="패스_138" data-name="패스 138" d="M65.132,31.221c0-.06-.06-.121-.181-.121h-.544c-.06,0-.121.06-.181.121L62.289,36.18,60.172,33.7l2-2.3a.113.113,0,0,0,0-.181c0-.06-.06-.121-.181-.121h-.726c-.06,0-.121,0-.121.06q-1.179,1.361-1.633,2V31.281a.16.16,0,0,0-.181-.181h-.544a.16.16,0,0,0-.181.181V36.3a.16.16,0,0,0,.181.181h.06a.679.679,0,0,0,.726-.665V34.366c.242.3.665.786,1.391,1.693a1.477,1.477,0,0,0,.968.484.767.767,0,0,0,.363-.06c.06,0,.06-.06.06-.121l.06.06a1.318,1.318,0,0,0,.363.06.658.658,0,0,0,.6-.423L63.8,34.91h.968a.739.739,0,0,0,.544-.181c.06-.06.06-.121.121-.181l.6,1.512a.582.582,0,0,0,.6.423,2.139,2.139,0,0,0,.363-.06c.06-.06.121-.121.06-.242ZM64.1,34.063l.544-1.391.544,1.451Z" transform="translate(-58.6 -30.979)"/>
      </g>
    </g>
  </g>
</svg>
