<svg width="300" height="300" viewBox="0 0 300 300" fill="none" xmlns="http://www.w3.org/2000/svg">
<g opacity="0.4">
<path d="M0 3.05176e-05L0 300H300V3.05176e-05H0Z" fill="#5C36B1"/>
<path d="M61.1721 119.604C58.0048 116.734 53.7488 114.853 49.0969 114.853C39.1992 114.853 31.083 122.969 31.083 132.966C31.083 142.963 39.1992 151.079 49.0969 151.079C58.9946 151.079 67.1107 142.963 67.1107 132.966C67.1107 132.669 67.1107 132.372 67.1107 132.075C67.1107 131.976 67.1107 131.976 67.1107 131.877V81.2008L126.596 61.1085V105.252C123.429 102.382 119.173 100.6 114.62 100.6C104.722 100.6 96.7049 108.717 96.7049 118.713C96.7049 128.71 104.722 136.826 114.62 136.826C124.518 136.826 132.535 128.71 132.535 118.713C132.535 118.614 132.535 118.416 132.535 118.317V118.218V34.0877C132.535 32.4051 131.248 31.1184 129.565 31.1184C129.466 31.1184 129.367 31.1184 129.367 31.1184C128.972 31.0194 128.477 31.1184 128.081 31.2173L63.2506 53.0913C61.9639 53.4873 61.1721 54.774 61.2711 56.0607C61.2711 56.1596 61.1721 56.2586 61.1721 56.3576V119.604ZM49.0969 145.239C42.4654 145.239 37.0216 139.795 37.0216 133.065C37.0216 126.334 42.4654 120.891 49.0969 120.891C55.7284 120.891 61.1721 126.334 61.1721 133.065C61.1721 139.696 55.7284 145.239 49.0969 145.239ZM67.1107 75.0643V58.1392L126.596 38.0468V54.9719L67.1107 75.0643ZM114.62 131.085C107.988 131.085 102.644 125.642 102.644 118.911C102.644 112.181 107.988 106.737 114.62 106.737C121.251 106.737 126.596 112.181 126.596 118.911C126.596 125.642 121.251 131.085 114.62 131.085Z" fill="#EB3F6B"/>
<path d="M197.267 237.387C194.099 234.516 189.843 232.636 185.191 232.636C175.294 232.636 167.177 240.752 167.177 250.749C167.177 260.745 175.294 268.862 185.191 268.862C195.089 268.862 203.205 260.745 203.205 250.749C203.205 250.452 203.205 250.155 203.205 249.858C203.205 249.759 203.205 249.759 203.205 249.66V198.984L262.691 178.891V223.035C259.523 220.165 255.267 218.383 250.714 218.383C240.817 218.383 232.799 226.499 232.799 236.496C232.799 246.493 240.817 254.609 250.714 254.609C260.612 254.609 268.629 246.493 268.629 236.496C268.629 236.397 268.629 236.199 268.629 236.1V236.001V151.87C268.629 150.188 267.342 148.901 265.66 148.901C265.561 148.901 265.462 148.901 265.462 148.901C265.066 148.802 264.571 148.901 264.175 149L199.345 170.874C198.058 171.27 197.267 172.557 197.366 173.843C197.366 173.942 197.267 174.041 197.267 174.14V237.387ZM185.29 263.022C178.659 263.022 173.215 257.578 173.215 250.848C173.215 244.117 178.659 238.673 185.29 238.673C191.922 238.673 197.366 244.117 197.366 250.848C197.366 257.578 191.922 263.022 185.29 263.022ZM203.304 192.847V175.922L262.79 155.83V172.755L203.304 192.847ZM250.813 248.868C244.182 248.868 238.837 243.424 238.837 236.694C238.837 229.963 244.182 224.52 250.813 224.52C257.445 224.52 262.79 229.963 262.79 236.694C262.79 243.424 257.346 248.868 250.813 248.868Z" fill="#EB3F6B"/>
<path d="M267.342 58.4361L260.414 54.675C254.079 51.2108 248.833 45.965 245.369 39.5315L241.608 32.6031C240.519 30.7225 237.451 30.7225 236.362 32.6031L232.601 39.5315C229.137 45.965 223.891 51.1118 217.557 54.675L210.628 58.4361C209.638 58.931 209.044 59.9208 209.044 61.0095C209.044 62.0983 209.638 63.088 210.628 63.5829L217.557 67.344C223.891 70.8082 229.137 76.0541 232.601 82.4876L236.362 89.416C236.857 90.4058 237.847 90.9996 238.936 90.9996C240.024 90.9996 241.014 90.4058 241.509 89.416L245.27 82.4876C248.734 76.0541 253.98 70.9072 260.315 67.344L267.243 63.5829C268.233 63.088 268.827 62.0983 268.827 61.0095C268.827 59.9208 268.233 58.931 267.342 58.4361ZM257.543 62.1973C250.12 66.2553 244.181 72.2929 240.123 79.7162L238.936 81.7947L237.748 79.7162C233.69 72.2929 227.652 66.2553 220.328 62.1973L218.15 61.0095L220.328 59.8218C227.751 55.7637 233.69 49.7261 237.748 42.3028L238.936 40.2243L240.123 42.3028C244.181 49.7261 250.219 55.7637 257.543 59.8218L259.721 61.0095L257.543 62.1973Z" fill="#1A236E"/>
<path d="M77.1083 230.855L81.8593 239.565C82.3542 240.555 83.3439 241.148 84.4327 241.148C85.5214 241.148 86.5112 240.555 87.0061 239.565L91.757 230.855C96.211 222.64 102.941 215.909 111.058 211.455L119.768 206.704C120.757 206.21 121.351 205.22 121.351 204.131C121.351 203.042 120.757 202.052 119.768 201.558L111.058 196.807C102.842 192.353 96.211 185.622 91.757 177.407L87.0061 168.697C86.5112 167.707 85.5214 167.114 84.4327 167.114C83.3439 167.114 82.3542 167.707 81.8593 168.697L77.1083 177.407C72.6544 185.622 65.9239 192.353 57.8078 196.807L49.0978 201.558C48.108 202.052 47.5142 203.042 47.5142 204.131C47.5142 205.22 48.108 206.21 49.0978 206.704L57.8078 211.455C65.9239 215.909 72.6544 222.64 77.1083 230.855ZM56.6201 204.032L60.5792 201.855C69.784 196.807 77.3063 189.284 82.2552 180.08L84.4327 176.12L86.6102 180.08C91.658 189.284 99.1803 196.807 108.286 201.855L112.245 204.032L108.286 206.21C99.0813 211.257 91.559 218.78 86.6102 227.985L84.4327 231.944L82.2552 227.985C77.2073 218.78 69.6851 211.257 60.5792 206.21L56.6201 204.032Z" fill="#1A236E"/>
<path d="M182.717 171.171L175.789 167.41C169.454 163.945 164.208 158.7 160.744 152.266L156.983 145.338C155.894 143.457 152.826 143.457 151.737 145.338L147.976 152.266C144.512 158.7 139.266 163.846 132.931 167.41L126.003 171.171C125.013 171.666 124.419 172.655 124.419 173.744C124.419 174.833 125.013 175.823 126.003 176.318L132.931 180.079C139.266 183.543 144.512 188.789 147.976 195.222L151.737 202.151C152.232 203.14 153.222 203.734 154.311 203.734C155.399 203.734 156.389 203.14 156.884 202.151L160.645 195.222C164.109 188.789 169.355 183.642 175.69 180.079L182.618 176.318C183.608 175.823 184.202 174.833 184.202 173.744C184.202 172.655 183.608 171.666 182.717 171.171ZM172.918 174.932C165.495 178.99 159.457 185.028 155.498 192.451L154.311 194.529L153.123 192.451C149.065 185.028 143.027 178.99 135.703 174.932L133.525 173.744L135.703 172.556C143.126 168.498 149.065 162.461 153.123 155.037L154.311 152.959L155.498 155.037C159.556 162.461 165.594 168.498 172.918 172.556L175.096 173.744L172.918 174.932Z" fill="#1A236E"/>
<path d="M147.184 86.348L153.914 90.0101C160.15 93.4743 165.297 98.5222 168.662 104.758L172.324 111.488C172.819 112.478 173.809 113.072 174.898 113.072C175.986 113.072 176.976 112.478 177.471 111.488L181.133 104.758C184.498 98.5222 189.645 93.3754 195.881 90.0101L202.611 86.348C203.601 85.8531 204.195 84.8633 204.195 83.7746C204.195 82.6858 203.601 81.696 202.611 81.2011L195.881 77.539C189.645 74.0748 184.498 69.027 181.133 62.7914L177.471 56.061C176.976 55.0712 175.986 54.4773 174.898 54.4773C173.809 54.4773 172.819 55.0712 172.324 56.061L168.662 62.7914C165.297 69.027 160.15 74.1738 153.914 77.539L147.184 81.2011C146.194 81.696 145.6 82.6858 145.6 83.7746C145.699 84.8633 146.293 85.8531 147.184 86.348ZM156.785 82.6858C164.01 78.7267 169.949 72.7881 173.908 65.5628L174.997 63.5832L176.085 65.5628C180.044 72.7881 185.983 78.7267 193.208 82.6858L195.188 83.7746L193.208 84.8633C185.983 88.8224 180.044 94.761 176.085 101.986L174.997 103.966L173.908 101.986C169.949 94.761 164.01 88.8224 156.785 84.8633L154.805 83.7746L156.785 82.6858Z" fill="#1A236E"/>
<path d="M131.546 222.243C129.863 222.243 128.577 223.53 128.577 225.213V233.725H120.065C118.382 233.725 117.095 235.012 117.095 236.694C117.095 238.377 118.382 239.663 120.065 239.663H128.577V248.175C128.577 249.858 129.863 251.145 131.546 251.145C133.228 251.145 134.515 249.858 134.515 248.175V239.663H143.027C144.71 239.663 145.997 238.377 145.997 236.694C145.997 235.012 144.71 233.725 143.027 233.725H134.515V225.213C134.515 223.53 133.13 222.243 131.546 222.243Z" fill="#1A236E"/>
<path d="M224.287 115.348C222.604 115.348 221.318 116.635 221.318 118.317V126.829H212.806C211.123 126.829 209.836 128.116 209.836 129.799C209.836 131.481 211.123 132.768 212.806 132.768H221.318V141.28C221.318 142.963 222.604 144.249 224.287 144.249C225.97 144.249 227.256 142.963 227.256 141.28V132.768H235.768C237.451 132.768 238.738 131.481 238.738 129.799C238.738 128.116 237.451 126.829 235.768 126.829H227.256V118.317C227.355 116.635 225.97 115.348 224.287 115.348Z" fill="#1A236E"/>
<path d="M45.9305 264.804C47.6131 264.804 48.8998 263.517 48.8998 261.834V252.926H57.7088C59.3914 252.926 60.6781 251.64 60.6781 249.957C60.6781 248.275 59.3914 246.988 57.7088 246.988H48.8998V238.08C48.8998 236.397 47.6131 235.111 45.9305 235.111C44.2478 235.111 42.9611 236.397 42.9611 238.08V246.988H34.1522C32.4696 246.988 31.1829 248.275 31.1829 249.957C31.1829 251.64 32.4696 252.926 34.1522 252.926H42.9611V261.834C42.9611 263.517 44.2478 264.804 45.9305 264.804Z" fill="#1A236E"/>
</g>
</svg>