<svg width="301" height="300" viewBox="0 0 300 300" fill="none" xmlns="http://www.w3.org/2000/svg">
<g opacity="0.4">
<path d="M0.318115 -0.00857544L0.318115 299.991H300.318V-0.00857544H0.318115Z" fill="#EB3F6B"/>
<path d="M50.482 93.7315C49.5912 98.0865 43.4546 96.4039 44.3454 92.8407C53.0554 49.9836 119.667 85.8134 113.531 39.393C113.531 35.038 118.776 34.1472 119.667 38.5022C126.694 91.9499 56.6186 56.912 50.482 93.7315Z" fill="#5C36B1"/>
<path d="M202.808 33.2567C200.135 31.4751 202.808 26.2294 206.272 28.9017C206.272 28.9017 223.791 41.1749 230.818 57.8031C266.747 61.2673 258.829 70.9671 254.474 69.1855C254.474 69.1855 243.982 64.8305 233.491 63.0489C244.873 112.043 176.579 56.9123 224.781 56.9123C217.753 43.7483 202.808 33.2567 202.808 33.2567Z" fill="#932985"/>
<path d="M227.354 63.0486C194.097 61.267 237.845 95.4142 227.354 63.0486V63.0486Z" fill="#EB3F6B"/>
<path d="M145.948 50.7909L124.042 72.6968L145.948 94.6026L167.854 72.6968L145.948 50.7909Z" fill="#5C36B1"/>
<path d="M145.878 58.6994L131.881 72.6968L145.878 86.6941L159.875 72.6968L145.878 58.6994Z" fill="#EB3F6B"/>
<path d="M104.82 147.971C101.356 148.862 98.6831 143.616 102.147 142.725C142.431 124.315 151.141 199.637 186.179 168.162C188.851 165.49 192.316 169.944 189.643 172.517C150.349 209.238 138.967 131.343 104.82 147.971Z" fill="#5C36B1"/>
<path d="M75.0277 166.381C73.2461 162.917 78.4919 160.244 80.2735 162.917L105.711 209.337C108.383 212.801 103.038 215.474 101.356 212.009L75.0277 166.381Z" fill="#5C36B1"/>
<path d="M264.966 105.114C264.075 101.65 269.321 100.759 270.211 104.223L285.058 172.518C285.949 176.873 279.812 177.763 278.921 174.299L264.966 105.114Z" fill="#5C36B1"/>
<path d="M78.4922 222.402C87.2022 231.112 73.2464 245.167 64.4374 236.457C55.7274 226.757 69.7822 213.692 78.4922 222.402Z" fill="#932985"/>
<path d="M74.1374 226.758C66.2192 218.839 66.2192 239.031 74.1374 232.003C75.919 230.321 75.919 227.648 74.1374 226.758Z" fill="#EB3F6B"/>
<path d="M199.344 199.637C208.054 209.238 194.989 222.402 186.18 213.692C177.47 204.883 190.634 190.927 199.344 199.637Z" fill="#932985"/>
<path d="M194.989 203.992C187.961 196.965 187.961 217.156 194.989 209.238C196.77 208.347 196.77 205.774 194.989 203.992Z" fill="#EB3F6B"/>
<path d="M103.929 112.042C112.639 120.752 99.5744 133.916 89.8746 125.206C81.1646 116.496 95.1204 103.332 103.929 112.042Z" fill="#932985"/>
<path d="M99.574 115.606C92.5466 108.578 92.5466 128.77 99.574 121.742C101.257 119.961 101.257 117.387 99.574 115.606Z" fill="#EB3F6B"/>
<path d="M180.934 248.631L151.241 272.286L145.104 235.566L180.934 248.631Z" fill="#5C36B1"/>
<path d="M152.924 244.275L155.596 261.794L169.552 250.412L152.924 244.275Z" fill="#EB3F6B"/>
<path d="M49.5917 134.015L46.1275 171.626L15.4446 149.753L49.5917 134.015Z" fill="#5C36B1"/>
<path d="M26.8264 150.644L40.8812 161.135L42.6628 143.616L26.8264 150.644Z" fill="#EB3F6B"/>
<path d="M246.654 151.534L268.528 174.2L246.654 196.173L223.889 174.2L246.654 151.534Z" fill="#5C36B1"/>
<path d="M246.607 160.2L232.61 174.198L246.607 188.195L260.605 174.198L246.607 160.2Z" fill="#EB3F6B"/>
<path d="M237.846 102.442L225.572 138.37L201.125 109.469L237.846 102.442Z" fill="#5C36B1"/>
<path d="M212.507 112.933L223.889 126.097L229.135 109.469L212.507 112.933Z" fill="#EB3F6B"/>
<path d="M177.47 22.7653C186.18 31.4753 173.115 44.6393 164.306 35.9293C155.596 27.1203 168.661 13.1645 177.47 22.7653Z" fill="#932985"/>
<path d="M173.114 26.3284C166.087 19.301 166.087 39.4924 173.114 31.5742C174.797 30.6834 174.797 28.011 173.114 26.3284Z" fill="#EB3F6B"/>
<path d="M186.18 57.8023C187.961 54.3381 193.207 56.0207 191.426 60.4747L166.879 125.305C165.098 128.769 159.852 127.086 160.743 123.523L186.18 57.8023Z" fill="#5C36B1"/>
<path d="M245.764 225.866C247.545 222.402 252.791 225.866 250.119 229.33C250.119 229.33 236.955 245.958 220.326 252.986C215.081 288.024 205.48 280.106 207.162 274.86C207.162 274.86 212.408 265.259 214.19 254.767C165.988 264.368 222.9 198.746 221.217 246.057C234.381 239.921 245.764 225.866 245.764 225.866Z" fill="#932985"/>
<path d="M215.081 248.631C218.644 215.375 181.825 257.44 215.081 248.631V248.631Z" fill="#EB3F6B"/>
</g>
</svg>