<svg width="300" height="300" viewBox="0 0 300 300" fill="none" xmlns="http://www.w3.org/2000/svg">
<g opacity="0.6">
<path d="M0.369751 -0.0568848V299.943H300.37V-0.0568848H0.369751Z" fill="#1A236E"/>
<path d="M270.113 50.4778C266.648 40.0851 257.345 36.6209 250.218 37.7097C243.389 38.7984 238.539 43.5494 237.054 50.2798C229.532 48.3003 223.098 51.5665 219.733 56.3174C215.576 62.0581 214.586 71.8568 222.307 79.5771C230.126 87.3963 242.003 88.9799 250.218 88.9799C255.266 88.9799 258.928 88.386 259.324 88.2871C260.116 88.1881 260.809 87.6932 261.304 87.0993C261.799 86.4065 275.853 67.4029 270.113 50.4778ZM257.048 82.5464C252.396 83.1402 235.57 84.328 226.662 75.42C221.416 70.1742 221.911 63.9387 224.781 60.0786C226.365 57.8021 229.136 55.9215 232.699 55.9215C234.382 55.9215 236.361 56.3174 238.44 57.4062C239.43 57.9011 240.518 57.8021 241.409 57.3072C242.3 56.7133 242.894 55.8225 242.894 54.7338C242.894 47.8054 247.249 44.5391 251.307 43.9453C256.157 43.1534 262.095 45.5289 264.471 52.6553C268.331 64.3346 259.621 78.5873 257.048 82.5464Z" fill="#6279ED"/>
<path d="M257.641 147.673C253.385 143.813 246.457 141.932 239.628 145.298C236.856 139.062 231.314 135.4 224.385 135.796C217.259 136.093 208.945 141.437 207.559 152.226C205.48 169.844 222.801 185.383 223.593 186.076C224.187 186.571 224.88 186.868 225.573 186.868H225.672C226.662 186.868 250.119 185.779 259.819 170.834C265.758 161.728 262.887 152.523 257.641 147.673ZM254.771 167.468C247.942 177.96 231.413 180.237 226.761 180.632C223.395 177.366 212.211 165.39 213.696 152.919C214.586 145.594 220.03 142.031 224.682 141.833C224.88 141.833 224.979 141.833 225.177 141.833C229.136 141.833 233.689 144.11 234.976 150.642C235.174 151.632 235.965 152.523 236.955 152.919C237.945 153.315 239.034 153.117 239.925 152.424C245.467 148.069 250.614 149.455 253.682 152.226C257.048 155.393 258.73 161.332 254.771 167.468Z" fill="#6279ED"/>
<path d="M71.2677 273.869C73.2472 273.869 74.5339 273.77 74.7319 273.77C75.5237 273.671 76.2165 273.374 76.7114 272.78C77.3053 272.087 91.7559 255.558 87.7969 239.425C85.3224 229.428 77.0083 225.469 70.2779 225.964C64.9331 226.36 59.1924 229.824 57.0149 236.456C50.1855 234.179 44.0489 236.753 40.4857 240.811C36.1307 245.858 34.4481 254.865 41.0796 262.685C49.4927 272.681 64.4382 273.869 71.2677 273.869ZM45.2366 244.968C46.7213 243.186 49.0968 241.8 51.9671 241.8C53.7487 241.8 55.6293 242.295 57.8068 243.582C58.6976 244.077 59.7863 244.176 60.7761 243.681C61.6669 243.186 62.3597 242.295 62.4587 241.207C63.0525 234.872 67.2096 232.398 70.8717 232.101C75.3257 231.804 80.4725 234.377 82.0562 240.91C84.8275 251.995 75.8206 264.268 73.0493 267.732C68.5953 267.93 53.3528 267.732 45.9295 258.923C41.5745 253.876 42.4653 248.234 45.2366 244.968Z" fill="#6279ED"/>
<path d="M157.279 113.032C147.579 105.014 140.849 93.3351 139.463 79.9731C136.296 49.3892 108.483 27.0203 77.6022 30.1876C75.9196 30.3855 74.7319 31.8702 74.8308 33.5528C75.0288 35.2354 76.5134 36.4231 78.1961 36.3242C105.712 33.4538 130.456 53.3482 133.326 80.666C134.91 95.7105 142.432 108.776 153.32 117.782C144.907 129.264 141.245 143.22 143.026 157.274C146.292 188.056 174.402 211.613 204.788 208.743H204.887L210.232 208.149C237.747 205.278 262.492 225.173 265.362 252.49C265.56 254.074 266.847 255.262 268.43 255.262C268.529 255.262 268.628 255.262 268.727 255.262C270.41 255.064 271.598 253.579 271.4 251.897C268.232 221.313 240.519 198.944 209.539 202.111L204.689 202.606C177.47 205.377 152.033 184.394 149.163 156.582C147.579 144.011 150.845 131.54 158.269 121.346C168.76 128.274 181.627 131.738 195.088 130.353C195.781 130.353 211.122 129.264 218.249 120.95C220.921 117.782 222.109 114.12 221.812 109.864C221.416 105.608 219.635 102.243 216.467 99.6696C208.054 92.9391 192.713 94.9187 192.119 95.0177C178.658 96.7003 166.385 103.035 157.279 113.032ZM192.911 101.154C196.573 100.659 207.361 100.263 212.607 104.519C214.488 106.004 215.477 107.984 215.675 110.458C215.873 113.032 215.181 115.11 213.597 116.991C209.143 122.236 198.354 124.018 194.494 124.315C182.716 125.503 171.433 122.533 162.129 116.694C170.344 108.083 181.033 102.639 192.911 101.154Z" fill="#70CFB3"/>
<path d="M74.9294 120.553C74.9294 120.553 75.0284 120.553 74.9294 120.553H79.3834C101.752 120.652 120.657 139.854 120.756 162.817C120.954 173.011 117.391 182.81 110.66 190.431C102.247 183.701 91.9535 180.138 81.165 180.138H81.066C80.4721 180.138 67.4071 179.742 60.6767 186.076C58.1033 188.551 56.7176 191.619 56.6186 195.281C56.5196 198.943 57.8063 202.111 60.3797 204.585C66.9122 211.019 79.9772 210.623 80.4721 210.623C91.7555 210.425 102.445 206.268 110.858 198.844C118.182 206.466 122.241 216.462 122.241 227.053C122.241 252.886 143.521 273.968 169.651 273.968C171.333 273.968 172.818 272.582 172.818 270.9C172.818 269.217 171.432 267.831 169.75 267.831H169.651C146.886 267.831 128.377 249.521 128.377 227.053C128.377 214.879 123.626 203.397 115.213 194.588C123.032 185.779 127.189 174.496 126.892 162.718C126.892 136.687 105.216 114.615 79.6803 114.417H79.5813H79.3834H79.2844H79.1854H75.1274H75.0284C52.2636 114.417 33.8539 96.1059 33.7549 73.6381C33.7549 71.9555 32.3692 70.5698 30.6866 70.5698C29.004 70.5698 27.6183 71.9555 27.6183 73.6381C27.6183 99.5702 48.8984 120.553 74.9294 120.553ZM80.2742 204.486C77.2059 204.585 68.4959 203.991 64.6358 200.23C63.3491 198.943 62.6562 197.36 62.7552 195.38C62.7552 193.401 63.448 191.817 64.8337 190.53C68.5949 186.967 76.513 186.274 80.1752 186.274C80.4721 186.274 80.6701 186.274 80.967 186.274H81.066C90.3699 186.274 99.0798 189.244 106.305 194.786C98.9809 200.923 89.875 204.288 80.2742 204.486Z" fill="#70CFB3"/>
<path d="M227.157 243.681C227.157 233.783 219.04 225.766 209.143 225.766C199.146 225.766 191.129 233.783 191.129 243.681C191.129 253.579 199.245 261.596 209.143 261.596C219.04 261.596 227.157 253.579 227.157 243.681ZM197.167 243.681C197.167 237.148 202.511 231.903 209.143 231.903C215.774 231.903 221.119 237.247 221.119 243.681C221.119 250.115 215.774 255.459 209.143 255.459C202.511 255.558 197.167 250.213 197.167 243.681Z" fill="#6279ED"/>
<path d="M54.8371 166.479C64.8338 166.479 72.851 158.462 72.851 148.565C72.851 138.667 64.7348 130.65 54.8371 130.65C44.9394 130.65 36.8232 138.667 36.8232 148.565C36.8232 158.462 44.8404 166.479 54.8371 166.479ZM54.8371 136.786C61.4686 136.786 66.8133 142.131 66.8133 148.565C66.8133 155.097 61.4686 160.343 54.8371 160.343C48.2056 160.343 42.8609 154.998 42.8609 148.565C42.8609 142.032 48.2056 136.786 54.8371 136.786Z" fill="#6279ED"/>
<path d="M61.6666 75.6183C61.6666 85.516 69.7828 93.5331 79.6805 93.5331C89.5782 93.5331 97.6943 85.516 97.6943 75.6183C97.6943 65.7205 89.5782 57.7034 79.6805 57.7034C69.7828 57.7034 61.6666 65.7205 61.6666 75.6183ZM79.6805 63.741C86.312 63.741 91.6567 69.0858 91.6567 75.5193C91.6567 82.0518 86.312 87.2976 79.6805 87.2976C73.049 87.2976 67.7042 81.9528 67.7042 75.5193C67.7042 69.0858 73.148 63.741 79.6805 63.741Z" fill="#6279ED"/>
<path d="M200.631 55.2286C200.631 45.3309 192.514 37.3137 182.617 37.3137C172.62 37.3137 164.603 45.3309 164.603 55.2286C164.603 65.1263 172.719 73.1435 182.617 73.1435C192.514 73.1435 200.631 65.1263 200.631 55.2286ZM170.542 55.2286C170.542 48.6961 175.886 43.4503 182.518 43.4503C189.149 43.4503 194.494 48.7951 194.494 55.2286C194.494 61.6621 189.149 67.0069 182.518 67.0069C175.886 67.0069 170.542 61.7611 170.542 55.2286Z" fill="#6279ED"/>
</g>
</svg>