<svg width="161" height="162" viewBox="0 0 161 162" fill="none" xmlns="http://www.w3.org/2000/svg">
<g opacity="0.3" clip-path="url(#clip0)">
<path d="M126.977 69.6816C128.108 69.7525 129.238 69.7171 130.369 69.6108C118.992 58.2038 107.581 46.7614 96.2044 35.3545C94.6145 53.1026 109.665 68.796 126.977 69.6816Z" fill="#6078F5"/>
<path d="M101.787 17.8899C95.9217 12.2572 90.4809 21.0073 94.8618 26.3211C97.6176 29.6865 101.151 32.6268 104.224 35.7088C113.799 45.3091 123.338 54.8739 132.912 64.4742C135.138 66.706 137.399 69.8234 140.014 71.5947C145.949 75.6686 151.92 69.6463 147.575 63.7657C141.639 55.795 132.806 48.9579 125.811 41.9437C117.791 33.973 109.771 25.9314 101.787 17.8899Z" fill="#6078F5"/>
<path d="M37.9801 111.873C35.2244 115.203 46.3887 124.059 48.5086 125.866C53.5254 130.223 56.0692 126.362 60.6268 122.678C54.868 116.904 49.0738 111.094 43.315 105.319C41.5132 107.48 39.7466 109.677 37.9801 111.873Z" fill="#6078F5"/>
<path d="M101.786 64.0135C96.7343 58.9477 93.1659 52.4295 91.6114 45.4507C85.0399 53.5631 78.5039 61.7109 71.9324 69.8233C66.9155 76.0227 61.8986 82.2222 56.8817 88.457C54.5499 91.3619 48.5438 96.3569 47.5899 99.9703C46.7773 102.946 51.2289 105.532 53.7373 108.047C55.7512 110.066 62.1813 118.923 64.9724 119.171C66.6329 119.312 72.1091 113.361 73.3456 112.369C79.2105 107.622 85.0399 102.875 90.9048 98.1281C100.727 90.1574 110.513 82.1867 120.335 74.2515C113.304 72.6573 106.803 69.0794 101.786 64.0135ZM96.0277 81.3011C92.318 85.0208 88.7496 89.4489 84.6513 92.7081C76.3134 99.3326 66.4562 89.7678 73.0277 81.3011C76.0307 77.4397 80.341 73.3304 84.086 70.213C92.106 63.5884 103.836 73.3304 96.0277 81.3011Z" fill="#47D2B1"/>
<path d="M32.7865 137.025C34.0584 135.75 35.3303 134.475 36.6022 133.199C32.8925 129.48 33.1752 128.807 29.4302 132.703C26.2151 136.033 25.7911 137.415 28.9355 140.851C30.7727 142.87 36.9908 146.803 37.3088 149.778C38.1214 156.97 30.9847 150.628 29.3595 148.999C24.2013 143.827 17.8418 134.227 10.8464 131.534C2.8618 128.452 -2.93237 137.379 1.48392 144.004C3.60373 147.157 7.0661 149.743 9.7512 152.435C7.84336 154.348 5.93553 156.261 3.99236 158.174C5.26425 159.449 6.53614 160.725 7.80803 162C9.89252 159.91 14.3795 156.97 15.4747 154.313C17.1352 150.31 12.8603 147.865 10.1752 145.173C9.04459 144.039 6.74812 142.481 6.04152 141.028C4.45166 137.734 6.28883 135.573 9.71587 137.061C11.977 138.017 14.5561 141.914 16.252 143.614C20.5269 147.901 27.8756 158.705 34.6944 158.635C42.3964 158.564 44.5515 149.991 40.3825 144.748C38.2627 141.949 35.295 139.54 32.7865 137.025Z" fill="#47D2B1"/>
<path d="M90.2688 72.8345C83.8387 72.8345 88.5377 77.6523 90.2688 79.3882C92.0353 77.9711 95.2857 72.8345 90.2688 72.8345Z" fill="#6078F5"/>
<path d="M42.361 127.425C38.2274 123.28 38.7926 123.351 34.6943 127.425C35.9662 128.7 37.2734 130.011 38.5453 131.286C39.8172 129.976 41.0891 128.7 42.361 127.425Z" fill="#47D2B1"/>
<path d="M76.8434 85.1625C74.2996 87.7131 77.6207 90.0512 80.0584 89.3781C81.2243 89.0593 82.2842 87.3943 83.0615 86.6149C86.9832 82.8244 86.3472 83.1787 82.5669 79.4236C80.6944 81.3011 78.7865 83.2141 76.8434 85.1625Z" fill="#6078F5"/>
<path d="M19.3257 71.9843C12.189 75.4205 14.0261 86.4732 21.9048 87.3235C29.3242 88.1382 33.9524 78.9277 28.5822 73.543C22.8234 67.7687 17.0999 62.0298 11.341 56.2555C13.8848 53.7048 16.4639 51.1188 19.0077 48.5682C15.5454 45.0965 15.8633 44.0337 12.3656 47.5408C10.4578 49.4538 4.87561 53.2443 4.87561 56.2555C4.87561 59.0541 9.68053 62.3132 11.447 64.049C14.0615 66.7059 16.7112 69.3274 19.3257 71.9843Z" fill="#FF2369"/>
<path d="M49.9217 38.5428C60.9447 38.5428 58.0476 22.2117 58.0476 15.2683C58.0476 13.8159 57.0584 7.04966 58.0476 5.95148C59.6728 4.14478 67.2688 7.75817 68.894 5.95148C69.1767 5.63265 69.106 1.16906 68.894 0.921081C68.3287 0.177149 66.8095 0.602253 65.573 0.531402C63.1352 0.354276 56.1398 -0.708484 53.9846 0.885656C50.063 3.82596 52.6421 18.2441 52.6421 22.7431C41.0184 18.4212 37.4854 38.5428 49.9217 38.5428Z" fill="#FFE44B"/>
<path d="M139.378 101.068C135.774 101.068 132.135 101.068 128.531 101.068C125.776 101.068 119.558 99.8285 117.014 101.246C112.386 103.832 115 118.462 115 123.316C108.605 120.942 102.458 127.46 104.684 133.695C106.768 139.54 114.717 140.993 118.639 136.069C122.631 131.074 120.441 119.596 120.441 113.751C120.441 112.794 119.699 107.197 120.441 106.524C121.536 105.532 128.567 106.524 129.98 106.524C132.347 106.524 135.633 105.851 136.693 107.374C137.894 109.11 136.693 115.628 136.693 117.895C128.249 114.778 122.031 126.398 128.885 131.924C134.785 136.671 141.462 131.64 142.098 125.228C142.416 121.721 144.253 101.068 139.378 101.068Z" fill="#FF2369"/>
<path d="M151.602 14.0285C139.06 1.48791 118.144 1.48791 105.602 14.0285C120.936 29.4031 136.269 44.7777 151.602 60.1522C164.109 47.5763 164.109 26.6045 151.602 14.0285Z" fill="#6078F5"/>
</g>
<defs>
<clipPath id="clip0">
<rect width="161" height="162" fill="white"/>
</clipPath>
</defs>
</svg>
