<svg width="301" height="301" viewBox="0 0 301 301" fill="none" xmlns="http://www.w3.org/2000/svg">
<g opacity="0.4">
<path d="M0.3396 0.673065L0.3396 300.673H300.34V0.673065H0.3396Z" fill="#6279ED"/>
<path d="M122.537 153.025C114.817 162.23 103.435 168.763 90.1718 170.248C75.7211 171.831 62.4581 178.859 53.2532 190.241C44.0484 201.623 39.6934 215.777 41.277 230.624C41.5739 232.207 42.8606 233.395 44.3453 233.395H44.6422C46.2259 233.098 47.4136 231.811 47.4136 230.03C46.2259 217.064 49.888 204.494 57.9052 194.299C66.2193 184.104 77.6016 177.968 90.5677 176.483C105.315 174.899 118.281 167.575 126.892 157.084C138.275 165.101 151.835 168.763 165.691 166.981C180.142 165.398 193.702 158.073 203.303 146.988C212.805 135.605 217.456 121.452 216.269 106.902C216.269 106.902 216.269 106.902 216.269 106.605L215.675 101.359C212.904 74.5365 232.303 50.584 259.126 47.8127C260.71 47.5157 261.897 46.229 261.897 44.4474C261.6 42.8638 260.314 41.3792 258.532 41.6761C228.344 44.7444 206.47 71.8642 209.538 102.052L210.132 106.704C211.32 119.67 207.361 132.24 198.75 142.435C190.139 152.63 178.064 159.063 165.197 160.251C152.923 161.834 140.848 158.667 130.653 151.343C137.384 141.148 140.848 128.578 139.264 115.612C139.264 115.018 138.077 99.8747 130.06 93.1443C126.991 90.3729 123.329 89.4821 118.974 89.779C114.619 90.076 111.254 91.9565 108.779 95.0248C102.346 103.339 104.128 118.087 104.128 118.779C106.503 132.438 112.64 144.414 122.537 153.025ZM114.223 99.4788C115.807 97.5982 117.588 96.7074 120.063 96.4105C120.36 96.4105 120.657 96.4105 120.954 96.4105C123.131 96.4105 124.913 97.0044 126.496 98.588C131.445 102.943 133.227 113.336 133.623 117.097C134.81 128.479 132.039 139.268 126.199 148.176C117.885 140.455 112.64 129.964 111.155 118.581C110.561 114.919 110.165 104.725 114.223 99.4788Z" fill="#1A236E"/>
<path d="M98.4857 266.751C96.6051 266.751 95.4174 268.334 95.4174 269.819C95.4174 271.304 97.001 272.887 98.4857 272.887C109.571 272.887 119.766 268.532 127.486 260.614C135.206 252.894 139.165 242.402 139.165 231.317V227.952C139.165 218.747 142.827 209.74 149.657 203.009C156.387 196.279 165.691 192.518 174.896 192.518C183.507 192.221 191.821 194.992 198.354 200.535C192.811 207.661 189.743 216.272 189.743 225.774C189.743 226.962 189.446 237.75 194.988 243.293C197.166 245.471 200.234 246.658 203.303 246.955C206.668 246.955 209.439 245.767 211.617 243.59C217.159 238.047 216.862 227.259 216.862 226.071C216.566 216.569 213.2 207.265 206.668 200.238C212.804 194.398 221.118 190.736 230.422 190.736C252.89 190.439 271.399 171.93 271.102 149.463C271.102 147.582 269.914 146.394 268.034 146.394C266.153 146.394 264.965 147.978 264.965 149.463C265.262 168.565 249.525 184.6 230.422 184.6C219.634 184.6 209.736 188.955 202.412 195.982C194.692 189.548 184.893 186.084 174.698 186.48C163.91 186.48 153.121 191.132 145.104 198.753C137.087 206.473 132.831 216.965 132.831 227.754V231.416C132.831 240.621 129.466 249.628 122.933 256.061C116.697 262.693 107.79 266.454 98.4857 266.751ZM202.61 204.791C207.559 210.631 210.627 218.351 210.627 226.368C210.627 228.842 210.33 236.266 207.262 239.334C206.371 240.225 204.787 240.918 203.303 240.918C201.719 240.918 200.531 240.324 199.343 239.334C196.275 235.969 195.681 228.545 195.681 226.071C195.879 218.054 198.354 210.927 202.61 204.791Z" fill="#1A236E"/>
<path d="M44.9392 58.5022L53.2533 64.6388L52.9564 74.8335C52.9564 76.0212 53.5502 77.011 54.54 77.6048C54.8369 77.9017 55.4308 77.9018 56.1236 77.9018C56.8165 77.9018 57.3114 77.6048 58.0042 77.3079L66.3183 71.4682L75.8201 74.8335C77.0078 75.1304 78.2945 74.8335 78.8884 74.2396C79.7792 73.3488 80.0761 72.0621 79.7792 71.1713L76.7109 61.2736L82.8475 53.2564C83.4414 52.3656 83.7383 51.0789 83.1444 49.8912C82.5506 49.0004 81.5608 48.0106 80.3731 48.0106H70.1784L64.3387 39.6965C63.7449 38.8058 62.4582 38.1129 61.2705 38.5088C60.0827 38.8057 59.093 39.3996 58.796 40.6863L55.7277 50.584L45.83 53.3554C44.6423 53.6523 43.9494 54.5431 43.6525 55.8298C43.3556 56.9186 43.9494 57.9084 44.9392 58.5022ZM58.796 55.7308C59.6868 55.4339 60.6766 54.8401 60.9735 53.8503L62.8541 48.6045L65.9224 53.2564C66.5162 54.1472 67.506 54.4441 68.3968 54.4441H73.9395L70.5743 58.7991C69.9805 59.6899 69.6835 60.6797 69.9804 61.5705L71.861 66.8163L66.6152 64.9357C65.7244 64.6388 64.4377 64.6388 63.8439 65.2327L59.1919 68.5979L59.4889 63.0552C59.4889 62.1644 59.1919 61.1746 58.3011 60.5807L53.6492 57.2155L58.796 55.7308Z" fill="#70CFB3"/>
<path d="M146.589 64.9358L156.783 66.5194L161.435 75.7243C162.029 76.6151 163.019 77.6048 164.207 77.6048C165.394 77.6048 166.384 77.011 166.978 75.7243L171.63 66.5194L181.825 64.9358C183.012 64.6388 184.002 64.045 184.299 62.7583C184.596 61.5705 184.299 60.2838 183.705 59.69L176.282 52.5636L178.162 42.3689C178.459 41.1812 177.866 39.8945 176.975 39.3007C176.084 38.7068 174.797 38.4099 173.61 39.0037L164.702 43.6557L155.2 39.0037C154.309 38.4099 153.022 38.4099 151.835 39.3007C150.944 39.8945 150.251 41.1812 150.647 42.3689L152.23 52.5636L145.104 59.69C144.213 60.5808 143.916 61.8675 144.213 62.7583C144.114 63.748 145.302 64.6388 146.589 64.9358ZM157.674 55.7309C158.268 55.137 158.565 53.8503 158.565 52.9595L157.674 47.4168L162.623 50.1882C163.514 50.782 164.504 50.782 165.394 50.1882L170.343 47.7137L169.452 53.2564C169.156 54.1472 169.452 55.434 170.343 56.0278L174.302 59.9869L168.76 60.5808C167.869 60.5808 166.879 61.1746 166.285 62.1644L163.811 67.1133L161.336 62.1644C161.039 61.2736 160.149 60.5808 159.159 60.5808L153.616 59.69L157.674 55.7309Z" fill="#70CFB3"/>
<path d="M262.986 227.258L254.078 222.309C253.187 221.715 251.901 221.715 250.713 222.606C249.822 223.2 249.129 224.487 249.525 225.674L251.109 235.869L243.685 242.995C242.795 243.886 242.498 245.173 242.795 246.064C243.092 246.954 243.982 247.944 245.269 248.241L255.464 249.825L260.116 259.03C260.71 259.921 261.699 260.91 262.887 260.91C264.075 260.91 265.065 260.316 265.658 259.03L270.31 249.825L280.505 248.241C281.693 247.944 282.683 247.35 282.979 246.064C283.276 244.876 282.979 243.589 282.386 242.995L274.962 235.869L276.843 225.674C277.14 224.487 276.546 223.2 275.655 222.606C274.764 222.012 273.478 221.715 272.29 222.309L262.986 227.258ZM267.638 243.886C266.747 243.886 265.757 244.48 265.164 245.47L262.689 250.419L260.512 245.47C260.215 244.579 259.324 243.886 258.037 243.886L252.494 242.995L256.454 239.036C257.047 238.442 257.344 237.156 257.344 236.265L256.454 230.722L261.402 233.494C262.293 234.087 263.283 234.087 264.174 233.494L269.123 231.019L268.232 236.562C267.935 237.453 268.232 238.739 269.123 239.333L273.082 243.292L267.638 243.886Z" fill="#70CFB3"/>
<path d="M249.129 80.97C248.238 80.3761 246.952 80.0792 246.061 80.6731C245.17 81.2669 244.18 82.2567 244.18 83.4444V93.6391L235.569 99.4788C234.679 100.073 233.986 101.359 234.382 102.547C234.679 103.735 235.272 104.725 236.559 105.021L246.061 108.387L248.832 118.284C249.129 119.472 250.02 120.165 251.307 120.462C251.604 120.462 251.604 120.462 251.901 120.462C252.791 120.462 253.781 120.165 254.375 119.274L260.512 110.96L270.706 111.257C271.894 111.257 272.884 110.663 273.478 109.673C274.071 108.783 274.071 107.496 273.181 106.308L267.341 97.9941L270.706 88.4923C271.003 87.3045 270.706 86.0178 270.112 85.424C269.519 84.8301 267.935 84.2362 267.044 84.5332L257.146 87.6015L249.129 80.97ZM262.689 92.0555L260.809 97.3012C260.512 98.192 260.512 99.4788 261.105 100.073L264.471 104.725L258.928 104.428C258.037 104.428 257.047 104.725 256.454 105.615L253.088 110.267L251.505 105.021C251.208 104.131 250.614 103.141 249.624 102.844L244.477 100.963L249.129 97.8951C250.02 97.3012 250.317 96.3115 250.317 95.4207V89.8779L254.672 93.2432C255.563 93.8371 256.553 94.134 257.443 93.837L262.689 92.0555Z" fill="#70CFB3"/>
<path d="M41.8707 127.787C43.8932 127.787 45.5328 126.148 45.5328 124.125C45.5328 122.102 43.8932 120.463 41.8707 120.463C39.8481 120.463 38.2085 122.102 38.2085 124.125C38.2085 126.148 39.8481 127.787 41.8707 127.787Z" fill="#70CFB3"/>
<path d="M175.49 113.632C177.513 113.632 179.152 111.993 179.152 109.97C179.152 107.947 177.513 106.308 175.49 106.308C173.468 106.308 171.828 107.947 171.828 109.97C171.828 111.993 173.468 113.632 175.49 113.632Z" fill="#70CFB3"/>
<path d="M90.1718 209.442C83.4413 209.442 78.1956 214.985 78.1956 221.419C78.1956 227.852 83.7383 233.395 90.1718 233.395C96.9023 233.395 102.148 227.852 102.148 221.419C102.148 214.985 97.0012 209.442 90.1718 209.442ZM90.1718 227.258C86.8066 227.258 84.3321 224.487 84.3321 221.419C84.3321 218.35 87.1035 215.579 90.1718 215.579C93.2401 215.579 96.0115 218.35 96.0115 221.419C96.0115 224.487 93.537 227.258 90.1718 227.258Z" fill="#1A236E"/>
<path d="M73.2466 104.725C73.2466 111.455 78.7893 116.701 85.2228 116.701C91.9533 116.701 97.1991 111.158 97.1991 104.725C97.1991 97.9944 91.6563 92.7486 85.2228 92.7486C78.4924 92.6496 73.2466 98.1923 73.2466 104.725ZM85.2228 98.8852C88.5881 98.8852 91.0625 101.657 91.0625 104.725C91.0625 107.793 88.2911 110.565 85.2228 110.565C82.1545 110.565 79.3832 107.793 79.3832 104.725C79.3832 101.657 81.8576 98.8852 85.2228 98.8852Z" fill="#1A236E"/>
<path d="M172.422 272.591C179.152 272.591 184.398 267.048 184.398 260.614C184.398 254.181 178.855 248.638 172.422 248.638C165.988 248.638 160.446 254.181 160.446 260.614C160.446 267.048 165.988 272.591 172.422 272.591ZM172.422 254.379C175.787 254.379 178.262 257.15 178.262 260.219C178.262 263.287 175.49 266.058 172.422 266.058C169.354 266.058 166.582 263.287 166.582 260.219C166.582 257.15 169.354 254.379 172.422 254.379Z" fill="#1A236E"/>
</g>
</svg>