<svg width="301" height="301" viewBox="0 0 301 301" fill="none" xmlns="http://www.w3.org/2000/svg">
<g opacity="0.4">
<path d="M0.0397949 0.433563L0.0397949 300.434H300.04V0.433563H0.0397949Z" fill="#70CFB3"/>
<path d="M217.354 184.894V86.5108C217.354 86.4118 217.255 86.3128 217.255 86.1149C217.255 86.0159 217.255 85.9169 217.255 85.7189C217.255 85.6199 217.156 85.521 217.156 85.521C217.057 85.3231 216.958 85.1251 216.859 84.9271C216.76 84.7292 216.661 84.6302 216.562 84.4322C216.463 84.2343 216.265 84.1353 216.067 84.0364C215.968 83.9374 215.771 83.8384 215.672 83.7394C215.474 83.6404 215.276 83.5415 215.078 83.5415C214.88 83.4425 214.682 83.4425 214.484 83.4425C214.385 83.4425 214.286 83.3435 214.187 83.3435C214.088 83.3435 213.989 83.4425 213.791 83.4425C213.692 83.4425 213.593 83.4425 213.395 83.4425L119.565 105.217C119.466 105.217 119.367 105.316 119.367 105.316C119.169 105.415 118.971 105.514 118.773 105.613C118.575 105.712 118.476 105.811 118.278 105.91C118.08 106.009 117.981 106.207 117.882 106.306C117.783 106.504 117.684 106.603 117.585 106.801C117.486 106.999 117.387 107.197 117.387 107.296C117.288 107.494 117.288 107.692 117.288 107.89C117.288 107.989 117.189 108.088 117.189 108.187V191.625C113.329 187.863 108.083 185.488 102.244 185.488C90.5643 185.488 81.0625 194.99 81.0625 206.669C81.0625 218.348 90.5643 227.85 102.244 227.85C113.923 227.85 123.425 218.348 123.425 206.669V132.535L211.02 112.245V170.048C207.16 166.286 201.914 163.911 196.074 163.911C184.395 163.911 174.893 173.413 174.893 185.092C174.893 196.771 184.395 206.273 196.074 206.273C207.852 206.075 217.354 196.573 217.354 184.894ZM102.343 221.516C94.1275 221.516 87.397 214.785 87.397 206.57C87.397 198.355 94.1275 191.625 102.343 191.625C110.558 191.625 117.288 198.355 117.288 206.57C117.288 214.785 110.558 221.516 102.343 221.516ZM123.524 126.102V110.76L211.119 90.4699V105.811L123.524 126.102ZM196.173 199.84C187.958 199.84 181.227 193.109 181.227 184.894C181.227 176.679 187.958 169.949 196.173 169.949C204.388 169.949 211.119 176.679 211.119 184.894C211.119 193.109 204.388 199.84 196.173 199.84Z" fill="#FCE468"/>
<path d="M70.2741 89.5792C80.0728 89.5792 89.9706 85.818 97.3938 78.3947C98.5816 77.207 98.5816 75.2275 97.3938 73.9408C96.2061 72.753 94.2266 72.753 92.9399 73.9408C80.3698 86.5109 59.9804 86.5109 47.4103 73.9408C37.6116 64.142 37.6116 48.2067 47.4103 38.4079C51.0725 34.7458 56.0214 32.6672 61.1682 32.6672C66.414 32.6672 71.2638 34.6468 74.926 38.4079C80.7657 44.2476 80.7657 53.7494 74.926 59.5891C73.7383 60.7768 73.7383 62.7563 74.926 64.043C76.1137 65.2308 78.0933 65.2308 79.38 64.043C87.5951 55.8279 87.5951 42.367 79.38 34.0529C69.3833 24.0562 53.052 24.0562 43.0553 34.0529C30.8811 46.3261 30.8811 66.1216 43.0553 78.3947C50.5776 85.818 60.4753 89.5792 70.2741 89.5792Z" fill="#FCE468"/>
<path d="M95.2165 107.395C69.5814 107.395 48.7961 126.2 48.7961 149.361C48.7961 151.044 50.1818 152.429 51.8644 152.429C53.5471 152.429 54.9327 151.044 54.9327 149.361C54.9327 129.664 72.9466 113.63 95.1175 113.63C96.8001 113.63 98.1858 112.244 98.1858 110.562C98.3837 108.78 96.9981 107.395 95.2165 107.395Z" fill="#57819F"/>
<path d="M257.836 246.557L240.911 237.352L231.706 220.427C230.617 218.447 227.351 218.447 226.262 220.427L217.058 237.352L200.132 246.557C199.143 247.15 198.549 248.14 198.549 249.328C198.549 250.516 199.143 251.505 200.132 252.099L217.058 261.304L226.262 278.229C226.856 279.219 227.846 279.813 229.034 279.813C230.222 279.813 231.211 279.219 231.805 278.229L241.01 261.304L257.935 252.099C258.925 251.505 259.519 250.516 259.519 249.328C259.519 248.14 258.925 247.051 257.836 246.557ZM237.15 256.157C236.655 256.454 236.16 256.85 235.863 257.444L228.935 270.113L222.006 257.444C221.709 256.949 221.314 256.454 220.72 256.157L208.051 249.229L220.72 242.3C221.215 242.004 221.709 241.608 222.006 241.014L228.935 228.345L235.863 241.014C236.16 241.509 236.556 242.004 237.15 242.3L249.819 249.229L237.15 256.157Z" fill="#FCE468"/>
<path d="M244.672 68.2984C255.065 68.2984 263.478 59.8853 263.478 49.4927C263.478 39.1001 255.065 30.687 244.672 30.687C234.28 30.687 225.867 39.1001 225.867 49.4927C225.867 59.7863 234.379 68.2984 244.672 68.2984ZM244.672 36.8236C251.601 36.8236 257.242 42.4653 257.242 49.3937C257.242 56.3221 251.601 61.9638 244.672 61.9638C237.744 61.9638 232.102 56.3221 232.102 49.3937C232.102 42.4653 237.744 36.8236 244.672 36.8236Z" fill="#FCE468"/>
<path d="M75.7181 228.939L62.1582 221.515L54.7349 207.956C53.6462 205.976 50.3799 205.976 49.2912 207.956L41.8679 221.515L28.308 228.939C27.3182 229.533 26.7244 230.522 26.7244 231.71C26.7244 232.898 27.3182 233.888 28.308 234.482L41.8679 241.905L49.2912 255.465C49.885 256.454 50.8748 257.048 52.0625 257.048C53.2503 257.048 54.24 256.454 54.8339 255.465L62.2572 241.905L75.8171 234.482C76.8068 233.888 77.4007 232.898 77.4007 231.71C77.4007 230.522 76.7079 229.533 75.7181 228.939ZM58.2981 236.857C57.8032 237.154 57.3083 237.55 57.0114 238.144L51.8646 247.547L46.7178 238.144C46.4208 237.649 46.0249 237.154 45.4311 236.857L36.0282 231.71L45.4311 226.563C45.926 226.266 46.4208 225.87 46.7178 225.277L51.8646 215.874L57.0114 225.277C57.3083 225.772 57.7042 226.266 58.2981 226.563L67.7009 231.71L58.2981 236.857Z" fill="#FCE468"/>
<path d="M152.92 221.516C151.238 221.516 149.852 222.902 149.852 224.584C149.852 243.093 134.115 258.237 114.814 258.237C113.131 258.237 111.746 259.622 111.746 261.305C111.746 262.988 113.131 264.373 114.814 264.373C137.579 264.373 156.088 246.458 156.088 224.485C156.088 222.902 154.702 221.516 152.92 221.516Z" fill="#57819F"/>
<path d="M271.792 169.256L247.641 101.753C247.048 100.17 245.266 99.2789 243.682 99.8728C242.099 100.467 241.208 102.248 241.802 103.832L265.952 171.334C266.447 172.621 267.635 173.413 268.922 173.413C269.317 173.413 269.614 173.314 270.01 173.215C271.495 172.621 272.386 170.839 271.792 169.256Z" fill="#57819F"/>
<path d="M142.725 68.2984C143.319 68.2984 144.012 68.1005 144.507 67.7046L180.04 42.2674C181.426 41.2776 181.722 39.2981 180.733 37.9124C179.743 36.5267 177.763 36.2298 176.378 37.2195L140.845 62.6567C139.459 63.6465 139.162 65.626 140.152 67.0117C140.746 67.8035 141.736 68.2984 142.725 68.2984Z" fill="#57819F"/>
</g>
</svg>