<svg width="301" height="301" viewBox="0 0 301 301" fill="none" xmlns="http://www.w3.org/2000/svg">
<g opacity="0.6">
<path d="M0.288086 0.721375L0.288086 300.721H300.288V0.721375H0.288086Z" fill="#932985"/>
<path d="M209.736 182.917L207.954 180.146L207.657 179.849C207.657 179.849 207.36 179.849 207.36 180.146L206.173 183.511L202.807 184.402L202.51 184.699V184.996L205.282 187.074V190.44C205.282 190.44 205.282 190.737 205.579 190.737C205.579 190.737 205.579 190.737 205.876 190.737H206.173L208.944 188.658L212.309 189.846H212.606V189.549L211.715 186.184L213.794 183.412V183.115L213.497 182.818H209.736V182.917Z" fill="#EB3F6B"/>
<path d="M95.2188 172.228V171.931L94.9218 171.634H91.5566L89.775 168.863L89.4781 168.566C89.4781 168.566 89.1812 168.566 89.1812 168.863L87.9934 172.228L84.6282 173.119L84.3313 173.416V173.713L87.1026 175.791V179.156C87.1026 179.156 87.1026 179.453 87.3996 179.453C87.3996 179.453 87.3996 179.453 87.6965 179.453H87.9934L90.7648 177.375L94.13 178.562H94.427V178.265L93.5362 174.9L95.2188 172.228Z" fill="#EB3F6B"/>
<path d="M83.639 48.9021L83.3421 48.6052H79.9768L77.8983 45.8338L77.6014 45.5369C77.6014 45.5369 77.3045 45.5369 77.3045 45.8338L76.1167 49.199L72.7515 50.0898L72.4546 50.3867V50.6837L75.2259 52.7622V56.1274C75.2259 56.1274 75.2259 56.4244 75.5229 56.4244C75.5229 56.4244 75.5229 56.4244 75.8198 56.4244H76.1167L78.8881 54.3458L82.2533 55.5336H82.5503V55.2366L81.6595 51.8714L83.738 49.1001C83.639 49.199 83.639 49.199 83.639 48.9021Z" fill="#EB3F6B"/>
<path d="M241.012 61.9668L240.715 61.6698H237.35L235.569 58.8985L235.272 58.6016C235.272 58.6016 234.975 58.6016 234.975 58.8985L233.787 62.2637L230.422 63.1545L230.125 63.4514V63.7484L232.896 65.8269V69.1921C232.896 69.1921 232.896 69.4891 233.193 69.4891C233.193 69.4891 233.193 69.4891 233.49 69.4891H233.787L236.558 67.4105L239.924 68.5982H240.22V68.3013L239.33 64.9361L241.408 62.1647C241.012 62.2637 241.012 61.9668 241.012 61.9668Z" fill="#EB3F6B"/>
<path d="M157.476 97.7965C163.811 94.1344 171.135 90.1753 171.135 81.6632C171.135 73.1512 163.811 69.1921 157.476 65.53C150.746 61.8678 146.886 59.4923 146.886 54.9394C146.886 53.1578 145.698 51.8711 143.818 51.8711C141.937 51.8711 140.749 53.0588 140.749 54.9394C140.749 63.4514 148.074 67.4105 154.408 71.0727C161.139 74.7348 164.999 77.1103 164.999 81.6632C164.999 86.2162 161.04 88.6906 154.408 92.2538C148.074 95.916 140.749 99.8751 140.749 108.387C140.749 116.899 148.074 120.858 154.408 124.52C161.139 128.183 164.999 130.558 164.999 135.111C164.999 139.664 161.04 142.138 154.408 145.702C148.074 149.364 140.749 153.323 140.749 161.835C140.749 170.347 148.074 174.306 154.408 177.968C161.139 181.63 164.999 184.006 164.999 188.559C164.999 193.112 161.04 195.586 154.408 199.149C148.074 202.811 140.749 206.77 140.749 215.283C140.749 223.795 148.074 227.754 154.408 231.416C161.139 235.078 164.999 237.453 164.999 242.006C164.999 246.559 161.04 249.034 154.408 252.597C148.074 256.259 140.749 260.218 140.749 268.73C140.749 270.512 141.937 271.798 143.818 271.798C145.698 271.798 146.886 270.611 146.886 268.73C146.886 264.177 150.845 261.703 157.476 258.14C163.811 254.477 171.135 250.518 171.135 242.006C171.135 233.494 163.811 229.535 157.476 225.873C150.746 222.211 146.886 219.835 146.886 215.283C146.886 210.73 150.845 208.255 157.476 204.692C163.811 201.03 171.135 197.071 171.135 188.559C171.135 180.047 163.811 176.088 157.476 172.425C150.746 168.763 146.886 166.388 146.886 161.835C146.886 157.282 150.845 154.807 157.476 151.244C163.811 147.582 171.135 143.623 171.135 135.111C171.135 126.599 163.811 122.64 157.476 118.978C150.746 115.316 146.886 112.94 146.886 108.387C146.886 103.933 151.142 101.459 157.476 97.7965Z" fill="#FCE468"/>
<path d="M83.0453 111.852C90.0726 112.743 98.1888 113.634 101.554 107.596C105.216 101.559 100.069 95.1253 95.8133 89.3846C92.4481 85.1286 89.0829 80.5756 90.6665 77.8043C92.1512 75.0329 97.6939 76.0227 103.138 76.6165C110.165 77.5073 118.281 78.3981 121.646 72.3605C125.309 66.3229 120.459 59.8894 115.906 54.1487C112.54 49.8927 109.175 45.3397 110.759 42.5683C111.65 41.0837 111.056 39.2031 109.571 38.3123C108.087 37.4215 106.206 38.0154 105.315 39.5C101.653 45.5377 106.503 51.9712 111.056 57.7119C114.421 61.9679 117.786 66.5208 116.203 69.2922C114.619 72.0636 109.175 71.0738 103.732 70.4799C96.7041 69.5891 88.588 68.6983 85.2228 74.736C81.8576 80.7736 86.7074 87.2071 90.9634 92.9478C94.3287 97.2038 97.6939 101.757 96.1103 104.528C94.6256 107.299 89.0829 106.31 83.6391 105.716C76.6118 104.825 68.4956 103.934 65.1304 109.972C61.4682 116.009 66.6151 122.443 70.8711 128.184C74.2363 132.44 77.6015 136.993 76.0179 139.764C74.5332 142.535 68.9905 141.546 63.5468 140.952C56.5194 140.061 48.4032 139.17 45.038 145.208C41.3759 151.245 46.5227 157.679 50.7787 163.42C54.1439 167.676 57.5091 172.229 55.9255 175C54.4408 177.771 48.8981 176.781 43.4544 176.188C36.427 175.297 28.3109 174.406 24.9456 180.444C24.0548 181.928 24.6487 183.809 26.1333 184.7C26.7272 184.997 27.0241 184.997 27.618 184.997C28.5088 184.997 29.6965 184.403 30.3894 183.512C31.874 180.741 37.4168 181.73 42.8605 182.324C49.8879 183.215 58.004 184.106 61.3693 178.068C65.0314 172.031 59.8846 165.597 55.6286 159.856C52.2634 155.6 48.8981 151.047 50.4818 148.276C52.0654 145.505 57.5091 146.494 62.9529 147.088C69.9803 147.979 78.0964 148.87 81.4616 142.832C85.1238 136.795 79.977 130.361 75.721 124.62C72.3557 120.364 68.9905 115.812 70.5741 113.04C72.1578 110.269 77.6015 111.16 83.0453 111.852Z" fill="#FCE468"/>
<path d="M252.296 150.65C246.852 151.244 241.408 152.135 239.825 149.463C238.34 146.691 241.606 142.435 244.971 137.882C249.227 132.142 254.077 125.708 250.712 119.671C247.05 113.633 239.132 114.524 232.203 115.415C226.76 116.008 221.316 116.899 219.732 114.227C218.149 111.554 221.514 107.199 224.879 102.646C229.135 96.9058 233.985 90.4723 230.62 84.4346C226.957 78.397 219.039 79.2878 212.111 80.1786C206.667 80.7725 201.223 81.6633 199.64 78.9909C198.155 76.2195 201.421 71.9635 204.787 67.4106C209.043 61.6699 213.893 55.2364 210.527 49.1988C206.865 43.1612 198.947 44.0519 192.019 44.9427C186.575 45.5366 181.131 46.4274 179.547 43.755C178.657 42.2704 176.776 41.9734 175.291 42.5673C173.807 43.4581 173.51 45.3386 174.104 46.8233C177.766 52.8609 185.684 51.9701 192.612 51.0793C198.056 50.4855 203.5 49.5946 205.084 52.267C206.568 55.0384 203.302 59.2944 199.937 63.8474C195.681 69.5881 190.831 76.0216 194.196 82.0592C197.858 88.0968 205.776 87.206 212.705 86.3152C218.149 85.7214 223.592 84.8306 225.176 87.5029C226.76 90.1753 223.394 94.5303 220.029 99.0833C215.773 104.824 210.923 111.257 214.288 117.295C217.951 123.333 225.869 122.442 232.797 121.551C238.241 120.957 243.685 120.066 245.268 122.739C246.852 125.411 243.487 129.766 240.121 134.319C235.865 140.06 231.016 146.493 234.381 152.531C238.043 158.569 245.961 157.678 252.89 156.787C258.333 156.193 263.777 155.302 265.361 157.975C266.845 160.746 263.579 165.002 260.214 169.555C255.958 175.296 251.108 181.729 254.473 187.767C255.067 188.658 255.958 189.252 257.245 189.252C257.838 189.252 258.135 189.252 258.729 188.955C260.214 188.064 260.511 186.183 259.917 184.699C258.432 181.927 261.698 177.671 265.064 173.118C269.32 167.378 274.17 160.944 270.804 154.906C267.439 148.869 259.224 149.76 252.296 150.65Z" fill="#FCE468"/>
<path d="M208.548 141.842C208.845 141.842 208.845 141.545 208.845 141.248C208.845 140.951 208.548 140.654 208.548 140.654L203.401 137.883L202.807 132.142C202.807 131.845 202.51 131.548 202.213 131.548C201.916 131.548 201.619 131.548 201.322 131.845L197.363 135.804L191.92 134.913C191.623 134.913 191.326 134.913 191.326 135.21C191.029 135.507 191.029 135.804 191.326 136.101L193.8 141.248L191.029 146.098C191.029 146.395 191.029 146.692 191.029 146.989C191.326 147.285 191.326 147.285 191.623 147.285L197.363 146.395L201.322 150.651C201.322 150.948 201.619 150.948 201.916 150.948C201.916 150.948 201.916 150.948 202.213 150.948C202.51 150.948 202.807 150.651 202.807 150.354L203.698 144.613L208.548 141.842Z" fill="#EB3F6B"/>
<path d="M125.606 132.142L128.08 126.996C128.08 126.699 128.08 126.402 128.08 126.105C127.783 125.808 127.783 125.808 127.486 125.808L121.746 126.996L117.49 123.036C117.193 122.739 116.896 122.74 116.599 122.74C116.302 122.74 116.005 123.036 116.005 123.333L115.708 129.074L110.561 131.845C110.264 131.845 110.264 132.142 110.264 132.439C110.264 132.736 110.561 133.033 110.561 133.033L115.708 135.508L116.599 140.951C116.599 141.248 116.896 141.545 117.193 141.545C117.193 141.545 117.193 141.545 117.49 141.545C117.786 141.545 117.786 141.545 118.083 141.248L122.042 136.992L127.783 137.883C128.08 137.883 128.377 137.883 128.377 137.586C128.674 137.289 128.674 136.992 128.377 136.695L125.606 132.142Z" fill="#EB3F6B"/>
<path d="M68.7922 238.146L71.2666 232.999C71.2666 232.702 71.2666 232.405 71.2666 232.108C70.9697 231.811 70.9696 231.811 70.6727 231.811L65.229 232.999L60.973 229.04C60.676 228.743 60.3791 228.743 60.0822 228.743C59.7852 228.743 59.4883 229.04 59.4883 229.337L58.8944 235.078L53.7476 237.849C53.4507 237.849 53.4507 238.146 53.4507 238.443C53.4507 238.74 53.7476 239.037 53.7476 239.037L58.8944 241.511L59.7852 246.955C59.7852 247.252 60.0822 247.549 60.3791 247.549C60.3791 247.549 60.3791 247.549 60.676 247.549C60.9729 247.549 60.9729 247.549 61.2699 247.252L65.229 242.996L70.9697 243.887C71.2666 243.887 71.5635 243.887 71.5635 243.59C71.8604 243.293 71.8604 242.996 71.5635 242.699L68.7922 238.146Z" fill="#EB3F6B"/>
<path d="M250.415 228.15L244.972 227.259L242.2 222.112C242.2 221.815 241.903 221.815 241.606 221.815C241.309 221.815 241.012 221.815 241.012 222.112L238.241 227.259L232.5 227.853C232.203 227.853 231.906 228.15 231.906 228.447C231.906 228.744 231.906 229.041 232.203 229.337L236.163 233.297L234.975 238.74C234.975 239.037 234.975 239.334 235.272 239.334C235.569 239.631 235.866 239.631 236.163 239.334L241.309 236.86L246.159 239.631H246.456H246.753C247.05 239.334 247.05 239.334 247.05 239.037L246.159 233.297L250.415 229.337C250.712 229.041 250.712 228.744 250.712 228.447C250.712 228.447 250.712 228.447 250.415 228.15Z" fill="#EB3F6B"/>
<path d="M112.837 216.273L107.69 213.501L107.096 207.761C107.096 207.464 106.799 207.167 106.502 207.167C106.205 207.167 105.908 207.167 105.611 207.464L101.652 211.423L96.2084 210.532C95.9115 210.532 95.6146 210.532 95.6146 210.829C95.3176 211.126 95.3176 211.423 95.6146 211.72L98.089 216.867L95.3176 221.716C95.3176 222.013 95.3176 222.31 95.3176 222.607C95.6146 222.904 95.9115 222.904 95.9115 222.904L101.652 222.013L105.611 226.269C105.611 226.566 105.908 226.566 106.205 226.566C106.205 226.566 106.205 226.566 106.502 226.566C106.799 226.566 107.096 226.269 107.096 225.972L107.987 220.232L113.134 217.757C113.43 217.757 113.43 217.46 113.43 217.163C113.134 216.966 113.134 216.57 112.837 216.273Z" fill="#EB3F6B"/>
</g>
</svg>