<svg width="156" height="158" viewBox="0 0 156 158" fill="none" xmlns="http://www.w3.org/2000/svg">
<g opacity="0.3" clip-path="url(#clip0)">
<path d="M104.603 83.1578C106.594 82.9771 108.368 84.4233 108.548 86.4118C108.729 88.4004 107.282 90.172 105.291 90.3528C103.3 90.5336 101.527 89.0874 101.346 87.0988C101.165 85.1464 102.613 83.3748 104.603 83.1578Z" fill="#6078F5"/>
<path d="M90.1253 147.913C92.1161 147.732 93.8896 149.178 94.0706 151.167C94.2516 153.155 92.8038 154.927 90.813 155.108C88.8223 155.288 87.0488 153.842 86.8678 151.854C86.6868 149.865 88.1346 148.093 90.1253 147.913Z" fill="#6078F5"/>
<path d="M144.418 3.61548C146.408 3.4347 148.182 4.88092 148.363 6.86948C148.544 8.85804 147.096 10.6297 145.105 10.8104C143.115 10.9912 141.341 9.545 141.16 7.55644C140.979 5.60403 142.427 3.83241 144.418 3.61548Z" fill="#47D2B1"/>
<path d="M50.3109 0.0361302C52.3016 -0.144648 54.0752 1.30158 54.2561 3.29013C54.4371 5.27869 52.9893 7.05032 50.9986 7.2311C49.0079 7.41187 47.2343 5.96565 47.0534 3.97709C46.8724 1.98853 48.3202 0.216908 50.3109 0.0361302Z" fill="#FFE44B"/>
<path d="M6.87706 126.581C8.86778 126.4 10.6413 127.846 10.8223 129.835C11.0033 131.823 9.55548 133.595 7.56476 133.776C5.57405 133.956 3.8005 132.51 3.61952 130.522C3.43855 128.533 4.88634 126.761 6.87706 126.581Z" fill="#FF2369"/>
<path d="M130.246 21.0268L123.043 21.7463L123.763 28.9413L130.966 28.2218L130.246 21.0268Z" fill="#6078F5"/>
<path d="M86.1621 10.1773L78.9594 10.8969L79.6797 18.0918L86.8824 17.3723L86.1621 10.1773Z" fill="#47D2B1"/>
<path d="M7.18801 78.8736L-0.0147705 79.5931L0.705535 86.7881L7.90832 86.0686L7.18801 78.8736Z" fill="#FFE44B"/>
<path d="M115.114 126.522L107.911 127.241L108.631 134.436L115.834 133.717L115.114 126.522Z" fill="#FF2369"/>
<path d="M25.1917 125.749C24.504 125.749 23.8524 125.496 23.3457 124.954C23.3095 124.918 23.3095 124.918 23.2733 124.881C21.0654 122.495 19.7624 120.254 19.2919 118.048C19.2557 117.94 19.2557 117.795 19.2195 117.687C18.7128 114.505 19.8348 110.202 27.4357 107.093C27.4719 107.057 27.5443 107.057 27.5805 107.021C30.7657 105.683 34.4937 103.477 34.4937 100.404C34.4937 97.6201 31.7429 94.6554 30.6571 93.7515C30.6209 93.7153 30.5847 93.7153 30.5485 93.6792C29.6436 92.8838 25.0831 88.6897 25.0107 83.3748C25.0107 83.3387 25.0107 83.3387 25.0107 83.3025V83.2664C25.0107 78.4938 28.4492 74.6613 35.2176 71.8774C35.3986 71.805 35.6158 71.7327 35.7968 71.6243C37.9685 70.6842 39.5972 69.6719 40.7193 68.551C40.7193 68.551 40.7193 68.551 40.7555 68.5149L40.7917 68.4787C41.8413 67.3579 42.3118 66.2371 42.2395 64.9716C42.0947 62.2238 39.3801 59.3675 38.439 58.6082C35.29 56.005 30.4761 49.5332 34.0956 43.3867C34.0956 43.3867 34.0956 43.3867 34.0956 43.3506C34.0956 43.3506 34.0956 43.3506 34.0956 43.3144C34.0956 43.2783 34.1318 43.2783 34.1318 43.2421C34.168 43.1698 34.2404 43.0613 34.2766 42.989L34.3128 42.9529C35.9053 40.4943 38.7647 38.4334 42.8186 36.7341C42.8548 36.698 42.9272 36.698 42.9634 36.6618C42.9995 36.6256 43.0357 36.6256 43.1081 36.6256C46.8362 35.0709 49.1889 33.227 49.8404 31.2746C50.2747 29.973 50.0214 28.4545 49.0441 26.7552C49.0441 26.7552 49.0441 26.7552 49.0441 26.719L49.0079 26.6829C48.7545 26.2851 48.646 25.8513 48.646 25.4174C48.646 24.5497 49.0803 23.7181 49.9128 23.2481C51.1072 22.525 52.6636 22.9588 53.3875 24.152L53.4237 24.2243C55.161 27.189 55.5954 30.2261 54.6543 32.9378C53.4599 36.4087 50.2023 39.2288 44.9179 41.3982C41.8051 42.6636 39.5972 44.1822 38.5838 45.773C35.9415 49.8224 41.5879 54.6673 41.6965 54.7396C42.1309 55.1012 44.7731 57.4151 46.2933 60.7414C46.8362 61.9346 47.2344 63.2723 47.3067 64.7185C47.4153 66.7071 46.9086 68.6233 45.7866 70.3588C45.4246 70.9373 44.9903 71.4796 44.4835 72.022C42.7824 73.7936 40.3211 75.3483 37.0998 76.6499C33.8784 77.9515 30.0418 80.1931 30.0418 83.3387C30.0418 83.3748 30.0418 83.411 30.0418 83.4471V83.4833C30.1504 86.2311 32.8288 89.0874 33.8784 89.9552C34.4576 90.4252 39.4163 94.7638 39.5248 100.296C39.5248 100.332 39.5248 100.368 39.5248 100.404V100.44C39.5248 105.213 36.0863 109.045 29.2817 111.829C24.2506 113.854 24.1058 115.879 24.2506 116.783C24.2506 116.891 24.2868 116.963 24.2868 117.036C24.4678 117.903 25.0831 119.386 27.0376 121.483C27.9787 122.495 27.9425 124.122 26.8928 125.062C26.4223 125.496 25.807 125.749 25.1917 125.749Z" fill="#6078F5"/>
<path d="M137.541 108.539C137.36 108.539 137.179 108.539 136.998 108.467C136.925 108.467 136.853 108.431 136.817 108.431C132.148 107.418 129.143 105.43 127.913 102.573C127.732 102.14 127.587 101.67 127.478 101.2C126.863 98.4156 127.696 95.3062 130.012 91.6183C130.048 91.5821 130.085 91.5098 130.121 91.4737C131.822 88.8343 132.727 86.5565 132.799 84.7126C132.799 84.6041 132.799 84.5318 132.799 84.4233C132.799 79.4339 125.415 78.7107 125.09 78.6746C124.728 78.6384 116.584 77.9153 113.724 72.0943C111.915 68.4426 112.675 63.9593 115.896 58.6805C116.005 58.4998 116.113 58.319 116.258 58.1382C119.226 53.5464 119.733 50.1478 117.778 48.0869C116.584 46.8215 114.593 46.0984 113.073 45.7007C112.313 45.5199 111.661 45.4114 111.263 45.3753C107.173 45.0499 99.536 42.519 98.9569 35.4325V35.3963C98.9569 35.3602 98.9569 35.3602 98.9569 35.324C98.9569 35.2879 98.9569 35.2879 98.9569 35.2517C98.9569 35.1432 98.9569 35.0348 98.9569 34.9263C98.9569 34.8902 98.9569 34.854 98.9569 34.8178C98.9569 34.7455 98.9569 34.6732 98.9569 34.6009C98.9569 31.8169 100.043 28.6714 102.178 25.2366C102.251 25.092 102.359 24.9835 102.432 24.8389L102.468 24.8027C104.676 21.368 105.544 18.4755 104.929 16.4869C104.531 15.1492 103.445 14.0645 101.635 13.2329H101.599C100.658 12.7991 100.115 11.8952 100.115 10.919C100.115 10.5574 100.188 10.1959 100.332 9.87047C100.911 8.60503 102.432 8.02654 103.698 8.60503L103.735 8.64118C106.884 10.0874 108.983 12.3291 109.779 15.0769C110.793 18.584 109.743 22.778 106.666 27.5867C104.893 30.3707 103.988 32.7208 103.988 34.6009C103.988 39.3734 110.793 40.2412 111.589 40.3496C111.625 40.3496 111.661 40.3496 111.661 40.3496C112.277 40.3858 117.742 40.9643 121.217 44.3991C121.253 44.4352 121.253 44.4352 121.289 44.4714L121.325 44.5075L121.362 44.5437C121.362 44.5437 121.362 44.5799 121.398 44.5799C123.968 47.3277 125.886 52.3533 120.493 60.8137C120.493 60.8137 120.493 60.8499 120.457 60.8499C118.719 63.5254 116.946 67.2856 118.213 69.8526C119.226 71.8773 121.977 72.9258 123.895 73.3597C124.547 73.5043 125.09 73.5767 125.488 73.6128C129.686 73.9744 137.613 76.6137 137.794 84.1341C137.794 84.2426 137.794 84.3149 137.794 84.4233C137.794 87.3158 136.636 90.5698 134.319 94.1853C132.691 96.7162 132.256 98.3794 132.292 99.4279C132.292 99.681 132.329 99.8979 132.365 100.079C132.799 102.031 135.659 103.007 138.011 103.513C139.387 103.803 140.255 105.141 139.966 106.514C139.785 107.708 138.699 108.539 137.541 108.539Z" fill="#FFE44B"/>
<path d="M82.0538 143.538C81.6195 143.538 81.1851 143.429 80.787 143.176C80.7508 143.14 80.6784 143.104 80.6422 143.104C73.9462 139.127 73.3671 134.897 74.3081 131.751C74.3805 131.462 74.4891 131.173 74.5977 130.919C74.7425 130.594 74.8872 130.269 75.0682 129.943C75.9731 128.244 77.4571 126.581 79.5564 124.882C82.0538 122.857 84.9132 119.892 84.5151 117.036C84.1169 114.071 80.2441 111.793 78.7963 111.179C78.7239 111.142 78.5791 111.07 78.3981 110.998C76.697 110.202 70.8334 107.057 70.0371 101.38C69.458 97.2225 71.7383 93.0284 76.8418 88.9067C80.1355 86.2673 81.8367 83.7364 81.8367 81.6032C81.8367 78.1323 77.0589 75.6737 76.2264 75.276C76.1541 75.2398 76.0817 75.2037 76.0817 75.2037C75.6835 75.0229 67.6483 71.5158 67.2501 64.6824C67.2501 64.6824 67.2501 64.6824 67.2501 64.6463C67.2501 64.6101 67.2501 64.5378 67.2501 64.5016C67.2501 64.3932 67.2501 64.2847 67.2501 64.1762C67.2501 64.1762 67.2501 64.1762 67.2501 64.1401C67.2501 60.5245 69.3856 56.909 73.5842 53.3657C73.7652 53.2211 73.9462 53.0765 74.1271 52.9318C74.1995 52.8957 74.2357 52.8234 74.3081 52.7872C77.3847 50.2563 79.0496 47.8339 79.122 45.773C79.1582 44.363 78.4705 42.989 77.0227 41.6513L76.9865 41.6151C76.4436 41.109 76.1903 40.422 76.1903 39.7712C76.1903 39.1565 76.4074 38.5419 76.878 38.0357C77.819 37.0234 79.4478 36.9511 80.4612 37.8911L80.5336 37.9273C83.0673 40.2774 84.3341 43.0614 84.2255 45.9176C84.0807 49.5332 81.8005 53.1849 77.4209 56.7643C77.3847 56.8005 77.3847 56.8005 77.3485 56.8366C77.2761 56.8728 77.2399 56.9451 77.1675 56.9813C74.0186 59.5845 72.3536 62.0431 72.3536 64.1039C72.3536 67.9364 78.0724 70.5035 78.1086 70.5035C78.4705 70.6481 86.9401 74.336 86.9401 81.5671C86.9401 85.3273 84.6237 89.0875 80.0631 92.8115C77.5657 94.8362 74.7063 97.8009 75.1044 100.657C75.5026 103.622 79.3754 105.9 80.8232 106.514C81.6195 106.876 88.6775 110.022 89.5824 116.313C90.1615 120.471 87.8812 124.665 82.7777 128.786C81.0042 130.233 79.8097 131.606 79.303 132.836C79.2306 133.017 79.1582 133.233 79.0858 133.487C78.8687 134.535 79.1582 136.379 83.3206 138.801C84.5151 139.488 84.9494 141.043 84.2255 142.272C83.7912 143.104 82.9225 143.538 82.0538 143.538ZM79.1582 102.14C77.7466 102.14 76.6246 101.019 76.6246 99.6087C76.6246 98.1987 77.7466 97.0778 79.1582 97.0778C80.5698 97.0778 81.6919 98.1987 81.6919 99.6087C81.6919 101.019 80.5698 102.14 79.1582 102.14Z" fill="#47D2B1"/>
<path d="M18.0975 31.4553C12.7044 31.4553 8.32483 27.0805 8.32483 21.6933C8.32483 16.3061 12.7044 11.9313 18.0975 11.9313C23.4905 11.9313 27.8701 16.3061 27.8701 21.6933C27.8701 27.0805 23.4905 31.4553 18.0975 31.4553ZM18.0975 16.9931C15.4914 16.9931 13.3921 19.0901 13.3921 21.6933C13.3921 24.2965 15.4914 26.3935 18.0975 26.3935C20.7035 26.3935 22.8028 24.2965 22.8028 21.6933C22.8028 19.0901 20.7035 16.9931 18.0975 16.9931Z" fill="#FF2369"/>
<path d="M142.97 143.538C138.59 143.538 135.007 139.958 135.007 135.584C135.007 131.209 138.59 127.629 142.97 127.629C147.349 127.629 150.933 131.209 150.933 135.584C150.933 139.958 147.349 143.538 142.97 143.538ZM142.97 132.691C141.377 132.691 140.074 133.993 140.074 135.584C140.074 137.174 141.377 138.476 142.97 138.476C144.562 138.476 145.865 137.174 145.865 135.584C145.865 133.993 144.562 132.691 142.97 132.691Z" fill="#FFE44B"/>
<path d="M152.019 63.9954C151.584 63.9954 151.114 63.8869 150.716 63.6338L140.798 57.6682C139.459 56.8727 138.626 55.3904 138.626 53.8718C138.626 52.3171 139.459 50.8709 140.798 50.0755L149.087 45.086L142.572 40.205C141.45 39.3734 140.798 38.0357 140.798 36.6618C140.798 34.9263 141.739 33.4078 143.259 32.6485L148.508 30.0091C149.087 29.7199 149.485 29.1052 149.485 28.4544V26.7551C149.485 25.3451 150.607 24.2242 152.019 24.2242C153.43 24.2242 154.552 25.3451 154.552 26.7551V28.4544C154.552 31.0577 153.104 33.3716 150.788 34.5286L146.408 36.7341L152.779 41.5066C153.901 42.3382 154.552 43.676 154.552 45.0499V45.1945C154.552 46.7492 153.72 48.1954 152.381 48.9908L144.273 53.8718L153.322 59.2952C154.516 60.0183 154.914 61.573 154.19 62.7661C153.72 63.5615 152.887 63.9954 152.019 63.9954Z" fill="#FF2369"/>
<path d="M63.9564 143.935C63.8116 143.935 63.6668 143.935 63.5582 143.899L52.1207 142.055C50.6005 141.802 49.2613 140.754 48.7184 139.308C48.1392 137.861 48.3564 136.198 49.2975 134.969L55.161 127.268L47.3067 125.135C45.9675 124.773 44.8455 123.797 44.3388 122.495C43.6873 120.904 44.013 119.133 45.1351 117.867L49.0441 113.492C49.4784 112.986 49.6232 112.299 49.3699 111.685L48.7545 110.094C48.2478 108.792 48.8631 107.31 50.1661 106.804C51.4692 106.297 52.9531 106.912 53.4599 108.214L54.0752 109.805C55.0524 112.227 54.5457 114.902 52.8446 116.855L49.587 120.507L57.2965 122.604C58.6357 122.965 59.7578 123.941 60.2645 125.243L60.3007 125.351C60.8798 126.798 60.6627 128.461 59.7216 129.69L53.9304 137.211L64.3545 138.91C65.7299 139.127 66.671 140.428 66.4538 141.802C66.2367 143.032 65.187 143.935 63.9564 143.935Z" fill="#FFE44B"/>
<path d="M152.019 83.1578C154.009 82.9771 155.783 84.4233 155.964 86.4118C156.145 88.4004 154.697 90.172 152.706 90.3528C150.716 90.5336 148.942 89.0874 148.761 87.0988C148.58 85.1464 150.028 83.3748 152.019 83.1578Z" fill="#6078F5"/>
<path d="M19.9072 158C15.5276 158 11.9443 154.421 11.9443 150.046C11.9443 145.671 15.5276 142.092 19.9072 142.092C24.2868 142.092 27.8701 145.671 27.8701 150.046C27.8701 154.421 24.2868 158 19.9072 158ZM19.9072 147.153C18.3146 147.153 17.0116 148.455 17.0116 150.046C17.0116 151.637 18.3146 152.938 19.9072 152.938C21.4998 152.938 22.8028 151.637 22.8028 150.046C22.8028 148.455 21.4998 147.153 19.9072 147.153Z" fill="#47D2B1"/>
</g>
<defs>
<clipPath id="clip0">
<rect width="156" height="158" fill="white"/>
</clipPath>
</defs>
</svg>
